<svg width="262" height="165" viewBox="0 0 262 165" fill="none" xmlns="http://www.w3.org/2000/svg">
<path d="M153.165 86.9165V14.0994H261.849V68.2571C261.849 68.9205 261.718 69.5773 261.464 70.19C261.21 70.8027 260.837 71.3593 260.368 71.828C259.899 72.2968 259.343 72.6684 258.73 72.9218C258.117 73.1752 257.461 73.3053 256.798 73.3047H168.641L153.165 86.9165Z" fill="#E5EBF1"/>
<path d="M257.161 0.802248H157.852C157.237 0.80175 156.628 0.922538 156.059 1.15771C155.491 1.39289 154.974 1.73785 154.539 2.17289C154.104 2.60794 153.758 3.12454 153.522 3.69321C153.287 4.26187 153.165 4.87146 153.165 5.48716V14.1H261.849V5.48716C261.849 4.87146 261.727 4.26187 261.491 3.69321C261.255 3.12454 260.91 2.60794 260.475 2.17289C260.039 1.73785 259.523 1.39289 258.954 1.15771C258.386 0.922538 257.776 0.80175 257.161 0.802248Z" fill="black"/>
<path d="M179.994 7.76139C179.993 8.35248 180.167 8.93058 180.495 9.42254C180.822 9.91451 181.288 10.2982 181.833 10.5251C182.379 10.7521 182.979 10.812 183.558 10.6973C184.138 10.5827 184.67 10.2986 185.088 9.88103C185.506 9.46347 185.791 8.93119 185.906 8.35155C186.022 7.77191 185.963 7.17096 185.738 6.62473C185.512 6.07851 185.13 5.61156 184.639 5.28298C184.148 4.95439 183.57 4.77893 182.98 4.77881C182.189 4.77847 181.43 5.09242 180.87 5.65167C180.31 6.21092 179.995 6.96973 179.994 7.76139Z" fill="white"/>
<path d="M170.473 7.76138C170.472 8.35265 170.646 8.93095 170.974 9.42312C171.301 9.91528 171.767 10.2992 172.312 10.5262C172.858 10.7533 173.458 10.8133 174.038 10.6986C174.617 10.5839 175.15 10.2998 175.568 9.8821C175.986 9.46441 176.271 8.93197 176.387 8.35215C176.502 7.77233 176.444 7.17119 176.218 6.62483C175.992 6.07846 175.609 5.61143 175.118 5.28282C174.627 4.95421 174.05 4.77881 173.459 4.77881C172.668 4.77847 171.909 5.09242 171.349 5.65167C170.789 6.21092 170.474 6.96973 170.473 7.76138Z" fill="white"/>
<path d="M160.953 7.76138C160.952 8.35265 161.126 8.93095 161.454 9.42312C161.781 9.91528 162.247 10.2992 162.792 10.5262C163.338 10.7533 163.938 10.8133 164.518 10.6986C165.097 10.5839 165.63 10.2998 166.048 9.8821C166.466 9.46441 166.751 8.93197 166.867 8.35215C166.982 7.77233 166.924 7.17119 166.698 6.62483C166.472 6.07846 166.089 5.61143 165.598 5.28282C165.107 4.95421 164.53 4.77881 163.939 4.77881C163.148 4.77847 162.389 5.09242 161.829 5.65167C161.269 6.21092 160.954 6.96973 160.953 7.76138Z" fill="white"/>
<path d="M148.76 147.694C150.098 147.693 151.411 147.336 152.564 146.659C153.718 145.982 154.671 145.011 155.326 143.844C155.98 142.676 156.313 141.356 156.289 140.018C156.265 138.68 155.886 137.372 155.19 136.229L132.629 99.3029C131.588 97.5944 129.912 96.3696 127.969 95.898C126.025 95.4264 123.975 95.7466 122.268 96.7883C120.561 97.83 119.337 99.5077 118.866 101.452C118.394 103.397 118.714 105.45 119.755 107.158L142.316 144.082C142.99 145.187 143.937 146.099 145.066 146.731C146.195 147.364 147.467 147.695 148.76 147.693" fill="#50A000"/>
<path d="M117.996 84.1753L116.44 104.127L102.499 102.632L108.333 74.3562L117.996 84.1753Z" fill="#FFBDA1"/>
<path d="M101.038 70.7967C101.289 73.8918 102.451 76.8429 104.378 79.2766C106.305 81.7102 108.91 83.5171 111.864 84.4684C114.817 85.4198 117.986 85.4729 120.97 84.6211C123.953 83.7692 126.617 82.0507 128.625 79.683C130.632 77.3153 131.892 74.4048 132.246 71.3198C132.601 68.2349 132.032 65.1141 130.614 62.3525C129.195 59.5909 126.99 57.3125 124.277 55.8057C121.564 54.2989 118.466 53.6314 115.374 53.8877C111.233 54.2292 107.397 56.202 104.709 59.3726C102.021 62.5432 100.701 66.6522 101.038 70.7967Z" fill="#FFBDA1"/>
<path d="M131.736 60.5574C131.736 60.5574 133.155 68.1054 110.378 63.267L108.308 73.7275C108.308 73.7275 105.562 89.566 105.404 87.6211C105.245 85.6761 88.1229 57.8193 111.582 51.1142C133.516 44.8452 131.736 60.5574 131.736 60.5574Z" fill="#072042"/>
<path d="M112.179 71.8153C112.117 72.6188 111.818 73.3857 111.32 74.019C110.822 74.6522 110.147 75.1235 109.381 75.373C108.616 75.6225 107.793 75.639 107.018 75.4206C106.243 75.2022 105.55 74.7586 105.027 74.1459C104.504 73.5332 104.175 72.7789 104.08 71.9786C103.985 71.1783 104.13 70.3679 104.496 69.6499C104.861 68.932 105.432 68.3387 106.134 67.9452C106.837 67.5517 107.641 67.3757 108.443 67.4394C109.518 67.5247 110.516 68.0335 111.216 68.8541C111.917 69.6746 112.263 70.7399 112.18 71.8159" fill="#FFBDA1"/>
<path d="M122.076 93.7479H95.7601C87.7993 93.7479 84.2214 101.431 84.4929 106.3L90.5394 155.9C90.6674 157.021 91.2052 158.055 92.0492 158.803C92.8932 159.551 93.9837 159.961 95.111 159.952L127.27 159.722C128.42 159.714 129.525 159.272 130.364 158.484C131.203 157.696 131.714 156.621 131.795 155.472L135.11 107.713C135.233 105.925 134.988 104.13 134.388 102.441C133.789 100.752 132.849 99.2041 131.626 97.8943C130.404 96.5844 128.925 95.5403 127.282 94.827C125.639 94.1137 123.867 93.7464 122.076 93.7479Z" fill="#3C3C3C"/>
<path d="M99.4414 93.748L122.226 93.7669C122.226 93.7669 121.082 102.258 110.77 102.258C100.459 102.258 99.4414 93.748 99.4414 93.748Z" fill="#FFBDA1"/>
<path d="M88.6855 66.0214C86.0051 64.8658 83.7271 62.9409 82.1393 60.49C80.5514 58.0391 79.7251 55.1722 79.7645 52.2514C79.804 49.3307 80.7075 46.4871 82.361 44.0801C84.0145 41.6731 86.3437 39.8106 89.0543 38.7279C91.7649 37.6452 94.7354 37.391 97.5903 37.9972C100.445 38.6035 103.057 40.0431 105.094 42.1341C107.132 44.2252 108.505 46.8738 109.04 49.7454C109.574 52.6171 109.246 55.5828 108.097 58.268C107.334 60.0552 106.226 61.6741 104.837 63.0317C103.447 64.3894 101.804 65.4591 100 66.1794C98.1966 66.8998 96.2687 67.2567 94.327 67.2295C92.3854 67.2024 90.4682 66.7919 88.6855 66.0214Z" fill="#072042"/>
<path opacity="0.3" d="M15.1774 164.642H246.949C248.597 164.642 249.936 163.73 249.936 162.604C249.936 161.479 248.598 160.567 246.95 160.567H15.1774C13.5276 160.567 12.1904 161.479 12.1904 162.604C12.1904 163.73 13.5276 164.642 15.1774 164.642Z" fill="#5C636E"/>
<path d="M123.768 147.3C123.186 146.109 122.302 145.093 121.204 144.352C120.105 143.612 118.832 143.173 117.511 143.081C116.19 142.988 114.869 143.245 113.678 143.825C112.488 144.405 111.47 145.288 110.728 146.386L99.4669 146.828L95.4976 154.29L111.338 155.63C112.549 156.996 114.214 157.877 116.024 158.11C117.835 158.342 119.668 157.91 121.185 156.893C122.701 155.877 123.799 154.345 124.274 152.581C124.748 150.817 124.569 148.941 123.768 147.3Z" fill="#FFBDA1"/>
<path d="M102.925 158.421H136.947V154.057H102.925V158.421Z" fill="#CFD1D3"/>
<path d="M131.854 158.422H183.14C184.577 158.422 185.974 157.952 187.119 157.083C188.263 156.215 189.093 154.995 189.479 153.61L199.48 117.705C199.685 116.965 199.717 116.187 199.572 115.432C199.427 114.677 199.109 113.966 198.644 113.355C198.179 112.743 197.579 112.247 196.891 111.906C196.203 111.565 195.445 111.389 194.677 111.389H147.574C146.616 111.388 145.684 111.705 144.925 112.29C144.165 112.875 143.62 113.695 143.376 114.623L131.854 158.422Z" fill="#E2E4E9"/>
<path d="M162.179 137.814C162.177 138.775 162.461 139.714 162.993 140.514C163.525 141.313 164.283 141.937 165.169 142.306C166.055 142.674 167.031 142.771 167.973 142.585C168.914 142.398 169.78 141.936 170.459 141.258C171.138 140.579 171.601 139.714 171.789 138.771C171.977 137.829 171.881 136.853 171.514 135.965C171.147 135.077 170.525 134.318 169.728 133.784C168.93 133.25 167.991 132.965 167.031 132.965C166.395 132.964 165.764 133.09 165.175 133.333C164.587 133.576 164.052 133.933 163.602 134.384C163.151 134.834 162.793 135.369 162.549 135.957C162.305 136.546 162.179 137.177 162.179 137.814Z" fill="white"/>
<path d="M103.593 158.422L72.1124 158.264C70.229 158.279 68.4039 157.611 66.9744 156.384C65.8121 155.349 65.0033 153.976 64.6621 152.456C64.3208 150.937 64.4642 149.35 65.0722 147.916L85.5484 100.562C86.313 98.8055 87.7411 97.4235 89.5205 96.7176C91.2999 96.0117 93.2862 96.0393 95.0453 96.7943C96.8045 97.5494 98.1937 98.9705 98.9093 100.747C99.625 102.524 99.6091 104.512 98.865 106.277L83.1221 143.503L103.754 143.733L103.593 158.422Z" fill="#50A000"/>
<path d="M112.863 21.6506H82.9129C82.3919 21.6509 81.8759 21.5485 81.3944 21.3491C80.913 21.1498 80.4755 20.8574 80.107 20.4887C79.7385 20.1201 79.4462 19.6824 79.2467 19.2006C79.0473 18.7188 78.9447 18.2024 78.9448 17.681V6.09126C78.9452 5.57005 79.0481 5.054 79.2477 4.57259C79.4472 4.09118 79.7396 3.65383 80.1081 3.28552C80.4766 2.9172 80.9139 2.62512 81.3952 2.42597C81.8764 2.22682 82.3921 2.12449 82.9129 2.12482H112.863C113.384 2.12432 113.9 2.22652 114.382 2.42558C114.863 2.62465 115.301 2.91667 115.669 3.28499C116.038 3.65331 116.331 4.09071 116.53 4.57221C116.73 5.05371 116.833 5.56988 116.834 6.09126V17.681C116.834 18.2026 116.731 18.7191 116.531 19.201C116.332 19.6828 116.039 20.1206 115.67 20.4893C115.302 20.8579 114.864 21.1502 114.382 21.3495C113.901 21.5487 113.384 21.6511 112.863 21.6506Z" fill="#E5EBF1"/>
<path d="M86.3774 19.0206V26.2559L94.6299 19.0206H86.3774Z" fill="#E5EBF1"/>
<path d="M61.8962 122.795V50.1935H0.000976562V104.191C0.00214821 105.527 0.533206 106.807 1.47739 107.751C2.42158 108.695 3.70161 109.225 5.03606 109.224H46.4689L61.8962 122.795Z" fill="#E5EBF1"/>
<path d="M4.67205 36.9369H57.2225C58.4607 36.9369 59.6483 37.4289 60.5243 38.3047C61.4004 39.1805 61.8932 40.3686 61.8945 41.6079V50.1935H0V41.6079C0.00133863 40.3686 0.494162 39.1805 1.3702 38.3047C2.24623 37.4289 3.43382 36.9369 4.67205 36.9369Z" fill="#101B21"/>
<path d="M16.2464 43.8758C16.2473 44.4651 16.0734 45.0415 15.7469 45.5319C15.4204 46.0224 14.9559 46.4048 14.4122 46.631C13.8684 46.8571 13.2699 46.9167 12.6922 46.8023C12.1146 46.6879 11.5839 46.4045 11.1672 45.9881C10.7506 45.5717 10.4667 45.0409 10.3515 44.463C10.2363 43.885 10.2949 43.2859 10.5201 42.7413C10.7452 42.1967 11.1267 41.7313 11.6162 41.4038C12.1057 41.0762 12.6813 40.9014 13.2702 40.9014C13.6607 40.9011 14.0475 40.9778 14.4085 41.1271C14.7694 41.2764 15.0975 41.4954 15.3738 41.7716C15.6502 42.0478 15.8695 42.3758 16.0192 42.7368C16.1689 43.0979 16.2461 43.4849 16.2464 43.8758Z" fill="white"/>
<path d="M25.7391 43.8758C25.7399 44.4651 25.5661 45.0415 25.2396 45.5319C24.9131 46.0224 24.4486 46.4048 23.9049 46.631C23.3611 46.8571 22.7625 46.9167 22.1849 46.8023C21.6073 46.6879 21.0766 46.4045 20.6599 45.9881C20.2432 45.5717 19.9593 45.0409 19.8441 44.463C19.7289 43.885 19.7876 43.2859 20.0128 42.7413C20.2379 42.1967 20.6193 41.7313 21.1089 41.4038C21.5984 41.0762 22.174 40.9014 22.7628 40.9014C23.5515 40.9011 24.3081 41.2142 24.8662 41.772C25.4242 42.3297 25.7382 43.0864 25.7391 43.8758Z" fill="white"/>
<path d="M35.2306 43.8758C35.2316 44.4653 35.0578 45.0419 34.7313 45.5325C34.4048 46.0231 33.9402 46.4058 33.3963 46.6321C32.8524 46.8583 32.2536 46.918 31.6758 46.8036C31.098 46.6891 30.5671 46.4057 30.1503 45.9892C29.7335 45.5726 29.4496 45.0417 29.3343 44.4636C29.2191 43.8854 29.2779 43.2861 29.5032 42.7414C29.7284 42.1967 30.1101 41.7311 30.5998 41.4036C31.0895 41.0761 31.6653 40.9013 32.2543 40.9014C33.043 40.9011 33.7996 41.2142 34.3576 41.772C34.9157 42.3297 35.2297 43.0864 35.2306 43.8758Z" fill="white"/>
<path d="M45.9355 76.6998C45.9411 80.1696 44.9181 83.5631 42.9961 86.4507C41.0741 89.3384 38.3394 91.5905 35.138 92.9221C31.9367 94.2536 28.4126 94.6048 25.0118 93.931C21.611 93.2573 18.4863 91.589 16.0332 89.1372C13.5801 86.6854 11.9088 83.5604 11.2309 80.1576C10.5529 76.7549 10.8988 73.2273 12.2247 70.0213C13.5506 66.8153 15.7969 64.0751 18.6794 62.1474C21.5619 60.2196 24.951 59.191 28.4178 59.1918C33.0603 59.1891 37.5138 61.032 40.7989 64.3153C44.084 67.5986 45.9316 72.0533 45.9355 76.6998Z" fill="#F8FCFF"/>
<path d="M33.542 136.982H51.5503C51.626 136.982 51.701 136.996 51.7711 137.025C51.8411 137.054 51.9048 137.096 51.9584 137.15C52.0121 137.203 52.0547 137.267 52.0838 137.337C52.1129 137.407 52.1279 137.482 52.128 137.558V151.213C52.1255 153.122 51.366 154.952 50.0165 156.301C48.667 157.65 46.8377 158.407 44.9305 158.407H40.1618C38.2546 158.407 36.4253 157.65 35.0758 156.301C33.7263 154.952 32.9669 153.122 32.9644 151.213V137.558C32.9644 137.482 32.9795 137.407 33.0085 137.337C33.0376 137.267 33.0802 137.203 33.1339 137.15C33.1876 137.096 33.2512 137.054 33.3213 137.025C33.3913 136.996 33.4663 136.982 33.542 136.982Z" fill="white"/>
<path d="M35.7006 156.052C31.6372 153.76 24.6639 146.993 25.8243 142.23C25.9586 141.624 26.2322 141.059 26.6234 140.578C27.0146 140.097 27.5125 139.714 28.0776 139.46C30.7716 138.208 34.6267 139.719 35.0573 139.896L33.775 142.57C32.8437 142.191 30.5709 141.575 29.5001 142.074C29.3439 142.147 29.2087 142.259 29.107 142.398C29.0053 142.537 28.9402 142.7 28.918 142.871C28.2405 145.645 33.6967 151.495 37.3529 153.558L35.7006 156.052Z" fill="white"/>
<path d="M39.618 83.1996H37.5976V78.0882C37.5976 77.5519 37.3848 77.0376 37.0059 76.6583C36.627 76.2791 36.1131 76.0661 35.5773 76.0661C35.0414 76.0661 34.5275 76.2791 34.1487 76.6583C33.7698 77.0376 33.5569 77.5519 33.5569 78.0882V83.2002H30.8465V75.6901C30.8465 75.1538 30.6336 74.6395 30.2548 74.2603C29.8759 73.8811 29.362 73.668 28.8262 73.668C28.2903 73.668 27.7764 73.8811 27.3976 74.2603C27.0187 74.6395 26.8058 75.1538 26.8058 75.6901V83.2009H24.0973V68.6779C24.0973 68.1416 23.8844 67.6273 23.5055 67.2481C23.1266 66.8689 22.6128 66.6558 22.0769 66.6558C21.5411 66.6558 21.0272 66.8689 20.6483 67.2481C20.2694 67.6273 20.0566 68.1416 20.0566 68.6779V83.1996H18.0394C17.9667 83.1961 17.8941 83.2074 17.8259 83.2328C17.7578 83.2582 17.6954 83.2972 17.6428 83.3474C17.5901 83.3976 17.5482 83.458 17.5195 83.5249C17.4908 83.5919 17.4761 83.6639 17.4761 83.7367C17.4761 83.8095 17.4908 83.8816 17.5195 83.9485C17.5482 84.0154 17.5901 84.0759 17.6428 84.1261C17.6954 84.1763 17.7578 84.2153 17.8259 84.2407C17.8941 84.2661 17.9667 84.2774 18.0394 84.2738H39.618C39.6906 84.2774 39.7632 84.2661 39.8314 84.2407C39.8996 84.2153 39.9619 84.1763 40.0146 84.1261C40.0673 84.0759 40.1092 84.0154 40.1379 83.9485C40.1665 83.8816 40.1813 83.8095 40.1813 83.7367C40.1813 83.6639 40.1665 83.5919 40.1379 83.5249C40.1092 83.458 40.0673 83.3976 40.0146 83.3474C39.9619 83.2972 39.8996 83.2582 39.8314 83.2328C39.7632 83.2074 39.6906 83.1961 39.618 83.1996Z" fill="#5FBE00"/>
<path d="M205.689 42.6309C205.689 42.6183 205.689 42.6063 205.689 42.5955C205.685 42.5652 205.68 42.5368 205.678 42.5077C205.678 42.4938 205.673 42.4831 205.673 42.4692V19.473C199.651 19.7007 193.959 22.2852 189.821 26.6705C185.684 31.0557 183.432 36.8911 183.549 42.9214C183.667 48.9516 186.145 54.6947 190.45 58.915C194.755 63.1354 200.544 65.4956 206.57 65.4881C207.665 65.4867 208.759 65.408 209.843 65.2524C209.488 63.3333 209.112 61.2941 208.737 59.2493C207.206 50.9392 205.688 42.6303 205.688 42.6303" fill="#101B21"/>
<path d="M207.465 39.2679L217.742 22.3393C214.589 20.5885 211.068 19.6067 207.465 19.4736V39.2679Z" fill="#5FBE00"/>
<path d="M219.274 23.2701L207.468 42.4799C208.443 47.8112 210.285 57.7788 211.608 64.9288C216.561 63.8211 221.009 61.106 224.259 57.2059C227.51 53.3059 229.382 48.4396 229.583 43.3645V41.5731C229.442 37.9218 228.434 34.3566 226.641 31.1735C224.848 27.9904 222.323 25.281 219.274 23.2701" fill="white"/>
<path d="M91.2549 11.9781C91.2556 12.3755 91.1386 12.7643 90.9185 13.0951C90.6984 13.426 90.3852 13.684 90.0185 13.8367C89.6518 13.9893 89.2482 14.0296 88.8586 13.9525C88.469 13.8754 88.111 13.6844 87.8299 13.4036C87.5489 13.1228 87.3573 12.7649 87.2796 12.3751C87.2018 11.9854 87.2413 11.5813 87.3931 11.214C87.5449 10.8467 87.8022 10.5327 88.1323 10.3118C88.4625 10.0909 88.8507 9.97302 89.2478 9.97302C89.5111 9.97277 89.7719 10.0244 90.0153 10.1251C90.2587 10.2257 90.4799 10.3733 90.6662 10.5595C90.8526 10.7457 91.0005 10.9668 91.1015 11.2102C91.2025 11.4536 91.2546 11.7145 91.2549 11.9781Z" fill="white"/>
<path d="M99.5889 11.9781C99.5896 12.3755 99.4726 12.7643 99.2525 13.0951C99.0324 13.426 98.7192 13.684 98.3525 13.8367C97.9858 13.9893 97.5821 14.0296 97.1926 13.9525C96.803 13.8754 96.445 13.6844 96.1639 13.4036C95.8828 13.1228 95.6913 12.7649 95.6136 12.3751C95.5358 11.9854 95.5753 11.5813 95.7271 11.214C95.8789 10.8467 96.1362 10.5327 96.4663 10.3118C96.7965 10.0909 97.1847 9.97302 97.5818 9.97302C97.8451 9.97277 98.1059 10.0244 98.3493 10.1251C98.5927 10.2257 98.8139 10.3733 99.0002 10.5595C99.1866 10.7457 99.3345 10.9668 99.4355 11.2102C99.5365 11.4536 99.5886 11.7145 99.5889 11.9781Z" fill="white"/>
<path d="M107.921 11.9781C107.922 12.3755 107.805 12.7643 107.585 13.0951C107.365 13.426 107.052 13.684 106.685 13.8367C106.318 13.9893 105.915 14.0296 105.525 13.9525C105.135 13.8754 104.778 13.6844 104.496 13.4036C104.215 13.1228 104.024 12.7649 103.946 12.3751C103.868 11.9854 103.908 11.5813 104.06 11.214C104.211 10.8467 104.469 10.5327 104.799 10.3118C105.129 10.0909 105.517 9.97302 105.914 9.97302C106.178 9.97277 106.438 10.0244 106.682 10.1251C106.925 10.2257 107.146 10.3733 107.333 10.5595C107.519 10.7457 107.667 10.9668 107.768 11.2102C107.869 11.4536 107.921 11.7145 107.921 11.9781Z" fill="white"/>
</svg>
