<svg width="537" height="467" viewBox="0 0 537 467" fill="none" xmlns="http://www.w3.org/2000/svg">
<g clip-path="url(#clip0)">
<path d="M208.336 12.0498L210.467 8.81256C209.858 7.134 209.128 5.45544 208.276 3.83682L206.937 4.9159L208.032 3.29729C206.997 1.31898 206.206 0.0600586 206.206 0.0600586C206.206 0.0600586 201.946 6.65441 200.546 13.6085L203.285 17.7449L200.302 15.347C200.181 16.1862 200.12 16.9656 200.12 17.8049C200.12 26.0178 202.859 32.7321 206.206 32.7321C209.554 32.7321 212.293 26.0778 212.293 17.8049C212.232 15.1671 211.745 12.5893 210.893 10.1314L208.336 12.0498Z" fill="#E6E6E6"/>
<path d="M223.309 19.1838L227.082 18.4045C227.874 16.7858 228.543 15.1073 229.152 13.3688L227.387 13.1889L229.334 12.7693C230.065 10.6111 230.369 9.17236 230.369 9.17236C230.369 9.17236 222.639 10.8509 216.675 14.8075L215.64 19.6034L215.214 15.8267C214.544 16.3063 213.936 16.8458 213.327 17.4453C207.423 23.2603 204.563 29.9146 206.936 32.2526C209.31 34.5906 216.066 31.773 221.97 25.958C223.796 24.0396 225.317 21.8815 226.535 19.5435L223.309 19.1838Z" fill="#E6E6E6"/>
<path d="M224.648 51.0764C215.822 51.616 206.206 51.0165 196.042 51.0764V28.0562C205.05 29.435 214.666 29.3151 224.648 28.0562V51.0764Z" fill="#E6E6E6"/>
<path d="M287.702 69.0609L289.102 66.9627C288.676 65.8237 288.25 64.7446 287.702 63.7255L286.79 64.4449L287.52 63.3658C286.85 62.0469 286.303 61.2676 286.303 61.2676C284.598 64.0252 283.381 66.9627 282.59 70.08L284.355 72.7777L282.407 71.2191C282.347 71.7586 282.286 72.2981 282.286 72.8377C282.286 78.233 284.051 82.5494 286.242 82.5494C288.433 82.5494 290.198 78.1731 290.198 72.8377C290.137 71.0992 289.833 69.4206 289.285 67.802L287.702 69.0609Z" fill="#E6E6E6"/>
<path d="M297.502 73.677L299.997 73.1374C300.484 72.0584 300.971 70.9793 301.336 69.8403L300.18 69.7204L301.458 69.4806C301.945 68.1018 302.127 67.1426 302.127 67.1426C298.962 67.862 295.919 69.1209 293.18 70.7994L292.511 73.9168L292.267 71.4589C291.841 71.7586 291.415 72.1183 291.05 72.538C287.216 76.3147 285.329 80.691 286.85 82.1897C288.372 83.6884 292.815 81.8899 296.65 78.0532C297.867 76.7943 298.841 75.4155 299.632 73.8568L297.502 73.677Z" fill="#E6E6E6"/>
<path d="M298.354 94.4793C292.632 94.839 286.363 94.4793 279.668 94.4793V79.4321C285.877 80.2714 292.145 80.2714 298.354 79.4321V94.4793Z" fill="#E6E6E6"/>
<path d="M294.824 139.021C289.772 139.321 284.233 139.021 278.33 139.021V125.772C283.807 126.552 289.346 126.552 294.824 125.772V139.021Z" fill="#E6E6E6"/>
<path d="M323.734 49.4575H101.886V55.5723H323.734V49.4575Z" fill="#E6E6E6"/>
<path d="M323.734 92.8003H101.886V98.9151H323.734V92.8003Z" fill="#E6E6E6"/>
<path d="M323.734 136.144H101.886V142.258H323.734V136.144Z" fill="#E6E6E6"/>
<path d="M286.607 130.628C293.464 130.628 299.023 125.153 299.023 118.398C299.023 111.644 293.464 106.169 286.607 106.169C279.75 106.169 274.191 111.644 274.191 118.398C274.191 125.153 279.75 130.628 286.607 130.628Z" fill="#E6E6E6"/>
<path d="M286.607 128.17C292.086 128.17 296.528 123.795 296.528 118.399C296.528 113.002 292.086 108.627 286.607 108.627C281.128 108.627 276.686 113.002 276.686 118.399C276.686 123.795 281.128 128.17 286.607 128.17Z" fill="white"/>
<path d="M286.607 120.857C287.985 120.857 289.102 119.756 289.102 118.399C289.102 117.041 287.985 115.941 286.607 115.941C285.229 115.941 284.112 117.041 284.112 118.399C284.112 119.756 285.229 120.857 286.607 120.857Z" fill="#E6E6E6"/>
<path d="M295.31 117.799H285.39V118.998H295.31V117.799Z" fill="#E6E6E6"/>
<path d="M287.216 109.886H285.998V119.657H287.216V109.886Z" fill="#E6E6E6"/>
<path d="M214.97 63.0059H206.754V94.9585H214.97V63.0059Z" fill="#E6E6E6"/>
<path d="M214.97 68.0415H206.754V71.7583H214.97V68.0415Z" fill="#CCCCCC"/>
<path d="M214.97 84.228H206.754V87.9448H214.97V84.228Z" fill="#CCCCCC"/>
<path d="M202.311 63.0059H194.094V94.9585H202.311V63.0059Z" fill="#E6E6E6"/>
<path d="M202.311 68.0415H194.094V71.7583H202.311V68.0415Z" fill="#CCCCCC"/>
<path d="M202.311 84.228H194.094V87.9448H202.311V84.228Z" fill="#CCCCCC"/>
<path d="M222.014 62.8676L214.65 66.4585L229.044 95.0944L236.407 91.5035L222.014 62.8676Z" fill="#E6E6E6"/>
<path d="M224.303 67.3876L216.939 70.9785L218.614 74.3095L225.977 70.7186L224.303 67.3876Z" fill="#CCCCCC"/>
<path d="M231.563 81.9076L224.199 85.4985L225.874 88.8295L233.237 85.2387L231.563 81.9076Z" fill="#CCCCCC"/>
<path d="M141.812 106.349H133.596V138.302H141.812V106.349Z" fill="#E6E6E6"/>
<path d="M141.812 111.385H133.596V115.102H141.812V111.385Z" fill="#CCCCCC"/>
<path d="M141.812 127.571H133.596V131.288H141.812V127.571Z" fill="#CCCCCC"/>
<path d="M129.153 106.349H120.936V138.302H129.153V106.349Z" fill="#E6E6E6"/>
<path d="M129.153 111.385H120.936V115.102H129.153V111.385Z" fill="#CCCCCC"/>
<path d="M129.153 127.571H120.936V131.288H129.153V127.571Z" fill="#CCCCCC"/>
<path d="M148.857 106.223L141.494 109.814L155.887 138.45L163.251 134.859L148.857 106.223Z" fill="#E6E6E6"/>
<path d="M151.147 110.743L143.783 114.334L145.458 117.665L152.821 114.074L151.147 110.743Z" fill="#CCCCCC"/>
<path d="M158.461 125.237L151.098 128.828L152.772 132.159L160.136 128.568L158.461 125.237Z" fill="#CCCCCC"/>
<path d="M218.683 106.349H210.467V138.302H218.683V106.349Z" fill="#E6E6E6"/>
<path d="M218.683 111.385H210.467V115.102H218.683V111.385Z" fill="#CCCCCC"/>
<path d="M218.683 127.571H210.467V131.288H218.683V127.571Z" fill="#CCCCCC"/>
<path d="M206.023 106.349H197.807V138.302H206.023V106.349Z" fill="#E6E6E6"/>
<path d="M206.023 111.385H197.807V115.102H206.023V111.385Z" fill="#CCCCCC"/>
<path d="M206.023 127.571H197.807V131.288H206.023V127.571Z" fill="#CCCCCC"/>
<path d="M225.728 106.214L218.364 109.805L232.758 138.441L240.122 134.85L225.728 106.214Z" fill="#E6E6E6"/>
<path d="M228.018 110.734L220.654 114.325L222.328 117.656L229.692 114.065L228.018 110.734Z" fill="#CCCCCC"/>
<path d="M235.277 125.254L227.913 128.845L229.588 132.176L236.951 128.585L235.277 125.254Z" fill="#CCCCCC"/>
<path d="M306.449 19.5435H273.826V51.6759H306.449V19.5435Z" fill="#E6E6E6"/>
<path d="M299.875 26.0176H280.338V45.2611H299.875V26.0176Z" fill="#CCCCCC"/>
<path d="M285.998 32.4321L290.137 39.5061L294.337 46.58H285.998H277.721L281.86 39.5061L285.998 32.4321Z" fill="#E6E6E6"/>
<path d="M293.241 33.811L297.38 40.885L301.519 47.9589H293.241H284.903L289.102 40.885L293.241 33.811Z" fill="#E6E6E6"/>
<path d="M296.162 31.7126C297.473 31.7126 298.536 30.6659 298.536 29.3746C298.536 28.0834 297.473 27.0366 296.162 27.0366C294.852 27.0366 293.789 28.0834 293.789 29.3746C293.789 30.6659 294.852 31.7126 296.162 31.7126Z" fill="#E6E6E6"/>
<path d="M141.63 19.5435H109.007V51.6759H141.63V19.5435Z" fill="#E6E6E6"/>
<path d="M135.057 26.0176H115.52V45.2611H135.057V26.0176Z" fill="#CCCCCC"/>
<path d="M121.18 32.4321L125.318 39.5061L129.457 46.58H121.18H112.841L117.041 39.5061L121.18 32.4321Z" fill="#E6E6E6"/>
<path d="M128.361 33.811L132.5 40.885L136.639 47.9589H128.361H120.084L124.223 40.885L128.361 33.811Z" fill="#E6E6E6"/>
<path d="M131.283 31.7126C132.594 31.7126 133.657 30.6659 133.657 29.3746C133.657 28.0834 132.594 27.0366 131.283 27.0366C129.972 27.0366 128.909 28.0834 128.909 29.3746C128.909 30.6659 129.972 31.7126 131.283 31.7126Z" fill="#E6E6E6"/>
<path d="M43.4568 238.476L45.5871 235.238C44.9784 233.56 44.2481 231.881 43.396 230.263L42.057 231.342L43.1525 229.723C42.1178 227.745 41.3266 226.486 41.3266 226.486C41.3266 226.486 37.0661 233.08 35.6663 240.034L38.4051 244.171L35.4228 241.773C35.3011 242.612 35.2402 243.391 35.2402 244.231C35.2402 252.444 37.9791 259.158 41.3266 259.158C44.6741 259.158 47.413 252.504 47.413 244.231C47.3521 241.593 46.8652 239.015 46.0131 236.557L43.4568 238.476Z" fill="#5FBE00"/>
<path d="M58.4289 245.67L62.2024 244.89C62.9937 243.272 63.6632 241.593 64.2718 239.855L62.5067 239.675L64.4544 239.255C65.1847 237.097 65.4891 235.658 65.4891 235.658C65.4891 235.658 57.7594 237.337 51.7947 241.293L50.7601 246.089L50.334 242.313C49.6645 242.792 49.0559 243.332 48.4472 243.931C42.5435 249.746 39.6829 256.4 42.0566 258.738C44.4302 261.076 51.1861 258.259 57.0899 252.444C58.9158 250.525 60.4374 248.367 61.6547 246.029L58.4289 245.67Z" fill="#5FBE00"/>
<path d="M59.8291 277.562C51.0038 278.102 41.3874 277.502 31.2231 277.562V254.542C40.231 255.921 49.8474 255.801 59.8291 254.542V277.562Z" fill="#101B21"/>
<path d="M423.854 284.756H304.866V436.786H423.854V284.756Z" fill="#E6E6E6"/>
<path d="M62.568 292.729H56.3599V436.786H62.568V292.729Z" fill="#E6E6E6"/>
<path d="M423.854 274.385H-0.0610352V286.614H423.854V274.385Z" fill="#E6E6E6"/>
<path d="M65.672 286.614H53.2559V298.844H65.672V286.614Z" fill="#E6E6E6"/>
<path d="M373.764 293.628L373.033 296.386H355.687L354.652 293.628H310.465V321.684H418.316V293.628H373.764Z" fill="#101B21"/>
<path d="M373.764 329.058L373.033 331.756H355.687L354.652 329.058H310.465V357.114H418.316V329.058H373.764Z" fill="#101B21"/>
<path d="M373.764 364.428L373.033 367.185H355.687L354.652 364.428H310.465V392.544H418.316V364.428H373.764Z" fill="#101B21"/>
<path d="M373.764 399.857L373.033 402.615H355.687L354.652 399.857H310.465V427.913H418.316V399.857H373.764Z" fill="#101B21"/>
<path d="M229.882 272.587H193.303L194.581 256.7H228.665L229.882 272.587Z" fill="#E6E6E6"/>
<path d="M232.377 270.728H191.477V274.385H232.377V270.728Z" fill="#E6E6E6"/>
<path d="M281.616 154.428H141.873C139.804 154.428 138.161 156.046 138.161 158.085V242.013H285.329V158.085C285.39 156.106 283.686 154.428 281.616 154.428Z" fill="#101B21"/>
<path d="M138.161 242.073V255.801C138.161 257.839 139.804 259.458 141.873 259.458H281.616C283.686 259.458 285.329 257.839 285.329 255.801V242.073H138.161Z" fill="#E6E6E6"/>
<path d="M278.208 162.101H145.586V235.358H278.208V162.101Z" fill="white"/>
<path d="M211.927 254.242C213.978 254.242 215.64 252.605 215.64 250.586C215.64 248.566 213.978 246.929 211.927 246.929C209.877 246.929 208.215 248.566 208.215 250.586C208.215 252.605 209.877 254.242 211.927 254.242Z" fill="#101B21"/>
<path d="M526.471 435.887C512.898 436.726 498.169 435.827 482.466 435.887V400.457C496.282 402.555 511.072 402.375 526.471 400.457V435.887Z" fill="#101B21"/>
<path d="M506.021 403.634H502.308L503.525 332.056H504.742L506.021 403.634Z" fill="#101B21"/>
<path d="M522.758 404.114H519.045L520.263 332.595H521.48L522.758 404.114Z" fill="#101B21"/>
<path d="M491.109 404.114H487.396L488.674 332.595H489.892L491.109 404.114Z" fill="#101B21"/>
<path d="M509.124 286.315L515.15 277.203C513.385 272.347 511.316 267.611 509.003 262.995L505.108 266.112L508.151 261.436C505.229 255.741 502.916 252.204 502.916 252.204C502.916 252.204 490.865 270.908 486.848 290.691L494.578 302.441L486.057 295.667C485.753 297.945 485.57 300.283 485.57 302.621C485.57 326.061 493.361 345.065 502.916 345.065C512.472 345.065 520.263 326.061 520.263 302.621C520.263 295.367 518.619 287.754 516.306 280.74L509.124 286.315Z" fill="#E6E6E6"/>
<path d="M525.862 287.514L531.887 278.401C530.122 273.546 528.053 268.81 525.74 264.194L521.845 267.311L524.888 262.635C521.966 256.94 519.654 253.403 519.654 253.403C519.654 253.403 507.603 272.107 503.586 291.89L511.315 303.64L502.733 296.746C502.429 299.024 502.247 301.362 502.247 303.7C502.247 327.14 510.037 346.143 519.593 346.143C529.148 346.143 536.939 327.14 536.939 303.7C536.939 296.446 535.296 288.832 532.983 281.818L525.862 287.514Z" fill="#5FBE00"/>
<path d="M494.213 287.514L500.238 278.401C498.473 273.546 496.404 268.81 494.091 264.194L490.196 267.311L493.239 262.635C490.318 256.94 488.005 253.403 488.005 253.403C488.005 253.403 475.954 272.107 471.937 291.89L479.666 303.64L471.146 296.866C470.841 299.144 470.659 301.482 470.659 303.82C470.659 327.26 478.449 346.263 488.005 346.263C497.56 346.263 505.351 327.26 505.351 303.82C505.351 296.566 503.708 288.952 501.395 281.938L494.213 287.514Z" fill="#5FBE00"/>
<path d="M224.404 182.724H188.616V184.762H224.404V182.724Z" fill="#101B21"/>
<path d="M243.82 190.157H188.616V192.195H243.82V190.157Z" fill="#5FBE00"/>
<path d="M233.595 197.051H188.616V199.09H233.595V197.051Z" fill="#5FBE00"/>
<path d="M214.91 204.005H188.616V206.044H214.91V204.005Z" fill="#101B21"/>
<path d="M228.3 210.899H188.616V212.938H228.3V210.899Z" fill="#101B21"/>
<path d="M176.687 182.004H172.305V186.32H176.687V182.004Z" fill="#101B21"/>
<path d="M176.687 188.958H172.305V193.274H176.687V188.958Z" fill="#5FBE00"/>
<path d="M176.687 195.912H172.305V200.228H176.687V195.912Z" fill="#5FBE00"/>
<path d="M176.687 202.866H172.305V207.183H176.687V202.866Z" fill="#101B21"/>
<path d="M176.687 209.82H172.305V214.137H176.687V209.82Z" fill="#101B21"/>
<path d="M272.121 178.947H253.375C252.097 171.633 252.097 164.199 253.375 156.886H272.121C269.991 164.08 269.869 171.753 272.121 178.947Z" fill="#5FBE00"/>
<path d="M135.543 223.069L127.814 221.21C116.858 221.21 107.911 212.458 107.911 201.667C107.911 200.348 108.033 199.029 108.276 197.77C108.276 183.623 119.901 172.172 134.204 172.172C148.568 172.172 160.193 183.623 160.193 197.71C164.636 212.698 150.942 226.786 135.543 223.069Z" fill="#2F2E41"/>
<path d="M144.003 225.766C154.558 225.766 163.114 217.339 163.114 206.943C163.114 196.546 154.558 188.119 144.003 188.119C133.448 188.119 124.892 196.546 124.892 206.943C124.892 217.339 133.448 225.766 144.003 225.766Z" fill="#FFB8B8"/>
<path d="M131.526 216.774C131.526 216.774 125.744 236.378 122.397 238.056C119.049 239.735 148.933 242.133 148.933 242.133C148.933 242.133 148.081 223.309 149.786 221.69C151.49 220.072 131.526 216.774 131.526 216.774Z" fill="#FFB8B8"/>
<path d="M161.411 337.751C161.411 337.751 198.781 334.454 203.711 346.743C208.641 359.032 200.363 431.75 200.363 431.75H184.6V372.101C184.6 372.101 117.345 353.277 117.345 346.743C117.345 340.209 161.411 337.751 161.411 337.751Z" fill="#101B21"/>
<path d="M197.929 428.513L206.206 431.81C206.206 431.81 216.188 430.971 211.988 438.344C209.554 442.661 205.293 445.658 200.363 446.497C200.363 446.497 184.599 452.192 183.747 446.497C182.895 440.802 187.886 429.352 187.886 429.352L197.929 428.513Z" fill="#2F2E41"/>
<path d="M140.656 337.751C140.656 337.751 178.026 334.453 182.956 346.743C187.886 359.032 179.609 431.75 179.609 431.75H163.845V372.101C163.845 372.101 116.128 361.191 116.128 354.656C116.128 351.599 112.902 335.952 118.623 332.655C125.136 328.998 140.656 337.751 140.656 337.751Z" fill="#101B21"/>
<path d="M177.174 428.513L185.452 431.81C185.452 431.81 195.433 430.971 191.234 438.344C188.799 442.661 184.539 445.658 179.609 446.497C179.609 446.497 163.845 452.192 162.993 446.497C162.141 440.802 167.132 429.352 167.132 429.352L177.174 428.513Z" fill="#2F2E41"/>
<path d="M123.249 235.598L148.203 238.296C156.115 239.135 162.567 244.89 164.21 252.564L173.887 297.765C173.887 297.765 177.235 342.726 170.54 345.184C163.845 347.642 154.776 335.353 142.299 337.031C129.822 338.71 113.693 342.367 113.693 342.367C113.693 342.367 111.137 261.916 110.772 255.321C110.102 242.013 123.249 235.598 123.249 235.598Z" fill="#006A2F"/>
<path d="M182.287 340.089L192.512 346.024C192.512 346.024 210.893 343.446 210.284 349.801C209.675 356.155 189.651 354.956 189.651 354.956L177.296 347.463L182.287 340.089Z" fill="#FFB8B8"/>
<path d="M106.937 191.716C113.761 191.716 119.293 186.267 119.293 179.546C119.293 172.825 113.761 167.376 106.937 167.376C100.114 167.376 94.582 172.825 94.582 179.546C94.582 186.267 100.114 191.716 106.937 191.716Z" fill="#2F2E41"/>
<path d="M118.319 173.012C118.319 166.298 112.78 160.902 105.963 160.902C105.172 160.902 104.32 160.962 103.529 161.142C109.676 158.265 117.041 160.842 119.962 166.957C122.883 173.012 120.266 180.266 114.058 183.143C113.145 183.563 112.171 183.863 111.198 184.042C115.58 182.004 118.319 177.688 118.319 173.012Z" fill="#2F2E41"/>
<path d="M128.909 179.906L145.525 176.909L158.306 184.822C164.697 188.779 168.227 196.092 167.253 203.466L154.472 200.289L151.611 193.215L148.203 198.73L130.37 221.391L120.327 215.096L111.38 201.308L128.909 179.906Z" fill="#2F2E41"/>
<path d="M142.542 242.552L150.82 238.476C150.82 238.476 168.227 240.933 171.574 252.384C174.922 263.834 189.834 343.146 189.834 343.146L175.713 349.68L155.811 301.422L142.542 242.552Z" fill="#03933E"/>
<path opacity="0.2" d="M149.664 274.685L157.941 306.457L172.67 342.127L172.183 343.386L154.594 307.057L149.664 274.685Z" fill="black"/>
<path d="M87.6436 449.855L84.7222 448.836L113.085 365.807L117.223 367.245L87.6436 449.855Z" fill="#101B21"/>
<path d="M196.103 449.855L199.024 448.836L170.662 365.807L166.584 367.245L196.103 449.855Z" fill="#3F3D56"/>
<path d="M136.152 467H139.256L140.23 369.943H135.909L136.152 467Z" fill="#101B21"/>
<path d="M80.462 317.068L88.9829 350.879C91.4174 360.531 99.0254 368.085 108.824 370.482C132.5 376.297 157.333 376.178 180.948 370.003L193.668 366.706C201.033 364.787 206.571 358.553 207.119 351.059C207.302 348.421 206.815 345.724 205.719 343.326C205.659 343.206 205.598 343.146 205.598 343.026C202.25 336.192 195.312 331.756 187.582 331.576L174.131 331.156L125.197 309.814C125.197 309.814 108.338 301.362 94.5215 300.462C85.3311 299.803 78.2709 308.256 80.462 317.068Z" fill="#5FBE00"/>
<path d="M378.937 210.6H330.611V275.284H378.937V210.6Z" fill="#E6E6E6"/>
<path d="M373.399 218.093H336.211V267.851H373.399V218.093Z" fill="white"/>
<path d="M368.834 231.102H350.818V233.14H368.834V231.102Z" fill="#101B21"/>
<path d="M345.097 229.963H340.715V234.279H345.097V229.963Z" fill="#101B21"/>
<path d="M368.834 239.615H350.818V241.653H368.834V239.615Z" fill="#101B21"/>
<path d="M345.097 238.536H340.715V242.852H345.097V238.536Z" fill="#101B21"/>
<path d="M368.834 248.188H350.818V250.226H368.834V248.188Z" fill="#101B21"/>
<path d="M345.097 247.048H340.715V251.365H345.097V247.048Z" fill="#101B21"/>
<path d="M354.774 212.458C355.809 212.458 356.661 213.297 356.661 214.316C356.661 215.336 355.809 216.175 354.774 216.175C353.74 216.175 352.887 215.336 352.887 214.316C352.948 213.237 353.74 212.458 354.774 212.458Z" fill="#101B21"/>
</g>
<defs>
<clipPath id="clip0">
<rect width="537" height="467" fill="white"/>
</clipPath>
</defs>
</svg>
