<svg id="Layer_1" data-name="Layer 1" xmlns="http://www.w3.org/2000/svg" viewBox="0 0 203 114"><defs><style>.cls-1{fill:#101b21;}.cls-2{fill:#5fbe00;}.cls-3{fill:#fff;}</style></defs><path class="cls-1" d="M67.58,48.33l-1.21,2.82a.5.5,0,0,1-.5.32H62.5l-3,14a.43.43,0,0,1-.47.37H55.73c-.21,0-.34,0-.39-.11a.69.69,0,0,1,0-.44l2.94-13.85h-3.5c-.24,0-.33-.18-.26-.53l.58-2.71q.07-.42.45-.42H67.29C67.64,47.81,67.74,48,67.58,48.33Z"/><path class="cls-1" d="M75.9,57.23a9.91,9.91,0,0,1-2.66,7,6.48,6.48,0,0,1-5,2.06,4.37,4.37,0,0,1-4.82-4.82,9.64,9.64,0,0,1,2.71-7,6.76,6.76,0,0,1,5-2.06,4.64,4.64,0,0,1,3.48,1.31A4.77,4.77,0,0,1,75.9,57.23ZM72,57c0-1.09-.47-1.63-1.42-1.63a2.38,2.38,0,0,0-2,1.52,9.84,9.84,0,0,0-.82,2.39,11.53,11.53,0,0,0-.29,2.36c0,1.16.45,1.73,1.34,1.73A2.49,2.49,0,0,0,71,61.58,11.3,11.3,0,0,0,72,57Z"/><path class="cls-1" d="M90.3,53.07l-2,8.61a8.35,8.35,0,0,0-.21,1.87,6.3,6.3,0,0,0,.21,1.4c.07.22,0,.38-.29.47l-2.6.84a.93.93,0,0,1-.29,0c-.35,0-.56-.54-.63-1.63q0-.52,0-.69a5.37,5.37,0,0,1-4.16,2.32q-3,0-3-3a10.09,10.09,0,0,1,.29-2l1.77-7.75a.49.49,0,0,1,.42-.42L83,52.62a.6.6,0,0,1,.41,0c.06.05.07.18,0,.37l-1.76,7.77a7.87,7.87,0,0,0-.24,1.42.67.67,0,0,0,.77.74c1.4,0,2.47-1.74,3.21-5.2l.89-4.18a.5.5,0,0,1,.4-.42l3.26-.53c.22,0,.34,0,.37,0S90.36,52.84,90.3,53.07Z"/><path class="cls-1" d="M101.54,53.43l-1.13,2.83c0,.14-.22.17-.5.08a2.05,2.05,0,0,0-.81-.19,2.44,2.44,0,0,0-2,1.27,7.59,7.59,0,0,0-1.16,2.92l-1.11,5.21a.36.36,0,0,1-.37.32H91.25c-.28,0-.39-.16-.32-.48l1.69-8a8.13,8.13,0,0,0,.13-3.5c0-.29,0-.45.21-.5l2.74-.9.18,0c.2,0,.37.26.53.77a4.11,4.11,0,0,1,.11,1.66,7.61,7.61,0,0,1,1.34-1.59,3.39,3.39,0,0,1,2.24-.84,2.26,2.26,0,0,1,1.37.32C101.62,52.94,101.65,53.14,101.54,53.43Z"/><path class="cls-1" d="M108.47,53.31l-2.63,12.27a.34.34,0,0,1-.37.29h-3.19c-.3,0-.42-.13-.37-.4L104,55.84h-1.64c-.24,0-.35-.11-.31-.32l.45-2.24q.07-.42.42-.42h5.26C108.43,52.86,108.54,53,108.47,53.31Zm1.45-4.58a2.51,2.51,0,0,1-2.5,2.5,2.37,2.37,0,0,1-1.77-.74,2.46,2.46,0,0,1-.71-1.76,2.35,2.35,0,0,1,.73-1.75,2.41,2.41,0,0,1,1.77-.73,2.51,2.51,0,0,1,2.48,2.48Z"/><path class="cls-1" d="M119.42,54.1l-.66,1.76c-.1.27-.35.32-.73.16a6.64,6.64,0,0,0-2.35-.63c-1,0-1.52.38-1.52,1.13,0,.37.3.7.92,1l1.42.71a4.77,4.77,0,0,1,1.74,1.29,3.19,3.19,0,0,1,.58,2A4.48,4.48,0,0,1,117.37,65a5.67,5.67,0,0,1-3.93,1.31,10.11,10.11,0,0,1-4.34-1,1.29,1.29,0,0,1-.42-.26c-.05-.07,0-.21,0-.4l.79-2.08a.29.29,0,0,1,.42-.18c.51.19,1,.38,1.5.58a5.63,5.63,0,0,0,1.87.39c1.19,0,1.79-.42,1.79-1.26a.87.87,0,0,0-.4-.74,11.26,11.26,0,0,0-1.26-.63,7,7,0,0,1-2.27-1.45,3,3,0,0,1-.73-2.11,4.35,4.35,0,0,1,1.46-3.43,5.48,5.48,0,0,1,3.8-1.31,6.07,6.07,0,0,1,3.5.9A.62.62,0,0,1,119.42,54.1Z"/><path class="cls-1" d="M130.69,53.31,130,55.44a.39.39,0,0,1-.4.29h-3.21l-1.18,5.62a5.25,5.25,0,0,0-.13,1.1c0,.4.23.6.71.6a6,6,0,0,0,2-.43,2.48,2.48,0,0,1,.45-.12c.12,0,.22.1.29.31l.55,1.9c.07.25-.05.46-.36.66a8.29,8.29,0,0,1-4.22.95c-2.35,0-3.53-1-3.53-2.95a8.06,8.06,0,0,1,.22-1.66l1.23-6h-1.66c-.26,0-.36-.16-.29-.47l.48-2.08a.36.36,0,0,1,.37-.32h1.73l.72-3.26a.34.34,0,0,1,.34-.32l3.21-.34c.32,0,.47,0,.47.18a.6.6,0,0,1,0,.29L127,52.86h3.39C130.69,52.86,130.8,53,130.69,53.31Z"/><path class="cls-2" d="M145.8,49.49l-1.45,2.24a.4.4,0,0,1-.65.1,5.21,5.21,0,0,0-3-1.1A4,4,0,0,0,137,53.26a13.72,13.72,0,0,0-1.12,3.29,16.87,16.87,0,0,0-.44,3.66,3.25,3.25,0,0,0,.49,2,1.89,1.89,0,0,0,1.54.59,4.84,4.84,0,0,0,1.74-.34l.71-3.19h-1.74c-.26,0-.37-.11-.32-.34l.56-2.66c.07-.31.2-.47.39-.47h5.45c.3,0,.41.17.34.52L143,64.08a1.49,1.49,0,0,1-.87,1,11.28,11.28,0,0,1-5.19,1.24A5.73,5.73,0,0,1,133,65.08a6.25,6.25,0,0,1-1.89-4.95,17.16,17.16,0,0,1,.58-4.33,15.62,15.62,0,0,1,1.5-3.89,8.3,8.3,0,0,1,7.61-4.55,7.53,7.53,0,0,1,4.76,1.47c.19.16.29.3.29.42A.49.49,0,0,1,145.8,49.49Z"/><path class="cls-2" d="M159.26,53.07l-1.95,8.61a7.32,7.32,0,0,0-.21,1.87,5.32,5.32,0,0,0,.21,1.4c.07.22,0,.38-.29.47l-2.61.84a.93.93,0,0,1-.29,0c-.35,0-.56-.54-.63-1.63q0-.52,0-.69a5.37,5.37,0,0,1-4.16,2.32c-2,0-3-1-3-3a9.39,9.39,0,0,1,.29-2l1.76-7.75a.49.49,0,0,1,.42-.42l3.19-.53c.21,0,.34,0,.4,0s.07.18,0,.37l-1.77,7.77a8.54,8.54,0,0,0-.23,1.42.66.66,0,0,0,.76.74c1.4,0,2.48-1.74,3.21-5.2l.9-4.18a.48.48,0,0,1,.39-.42l3.27-.53c.21,0,.33,0,.37,0S159.31,52.84,159.26,53.07Z"/><path class="cls-2" d="M166.94,53.31l-2.63,12.27a.34.34,0,0,1-.37.29h-3.18c-.3,0-.43-.13-.37-.4l2.05-9.63h-1.63c-.25,0-.35-.11-.32-.32l.45-2.24q.08-.42.42-.42h5.27C166.91,52.86,167,53,166.94,53.31Zm1.45-4.58a2.49,2.49,0,0,1-2.5,2.5,2.35,2.35,0,0,1-1.76-.74,2.42,2.42,0,0,1-.71-1.76,2.38,2.38,0,0,1,.72-1.75,2.42,2.42,0,0,1,1.78-.73,2.49,2.49,0,0,1,2.47,2.48Z"/><path class="cls-2" d="M182.24,47.23l-3.08,14.4c-.07.37-.13.77-.18,1.21a4.69,4.69,0,0,0,.18,1.92c.1.39,0,.63-.24.71l-2.6.77c-.34.1-.58,0-.74-.42a5.59,5.59,0,0,1-.32-1.56,4.78,4.78,0,0,1-3.87,2.06q-3.31,0-3.31-4.14a11.55,11.55,0,0,1,2.29-7.4A5.71,5.71,0,0,1,175,52.41a4.29,4.29,0,0,1,2.05.5l1.11-5.16a.47.47,0,0,1,.42-.39l3.23-.53c.22,0,.35,0,.4,0A.7.7,0,0,1,182.24,47.23Zm-5.69,8.21a3.11,3.11,0,0,0-1.29-.29A2.56,2.56,0,0,0,173,56.78a10.54,10.54,0,0,0-1.13,4.91c0,1.1.39,1.65,1.18,1.65q1.84,0,2.66-3.86Z"/><path class="cls-2" d="M194.11,56.07q0,3.41-4.14,4.51A14.31,14.31,0,0,1,186,61a1.79,1.79,0,0,0-.05.29c-.13,1.3.51,2,1.91,2a8.52,8.52,0,0,0,3.23-1c.31-.14.51-.1.6.11l.84,2a.36.36,0,0,1-.13.45,5.94,5.94,0,0,1-2.08,1,11.15,11.15,0,0,1-3.24.5A4.93,4.93,0,0,1,183.42,65a5.06,5.06,0,0,1-1.29-3.69,9.2,9.2,0,0,1,2.74-6.89,6.86,6.86,0,0,1,5-2,4.64,4.64,0,0,1,3.11,1A3.33,3.33,0,0,1,194.11,56.07Zm-3.63.14q0-1.14-1-1.14a2.78,2.78,0,0,0-2.32,1.21,6.57,6.57,0,0,0-.87,2.08,7.91,7.91,0,0,0,3-.44A1.77,1.77,0,0,0,190.48,56.21Z"/><rect class="cls-2" x="9.47" y="39.04" width="38.42" height="38.42" rx="8.34"/><path class="cls-3" d="M33.19,60.36a6.94,6.94,0,1,1,1.35-1.66h0l2.6,2.12A14,14,0,0,0,38.56,55,9.88,9.88,0,1,0,18.8,55c0,7.8,9,15.86,9.33,16.19a.82.82,0,0,0,.55.21.89.89,0,0,0,.55-.2,38.68,38.68,0,0,0,6.91-8.46Z"/><path class="cls-3" d="M28.05,50.44A4.8,4.8,0,1,0,29,60h0a4.8,4.8,0,1,0-1-9.55Z"/></svg>