<svg width="534" height="447" viewBox="0 0 534 447" fill="none" xmlns="http://www.w3.org/2000/svg">
<path d="M429.657 14.6287C387.293 0.00625534 336.992 2.4294 292.707 0.507597C247.002 -1.49776 200.21 2.4294 156.259 12.4562C117.572 21.2297 78.3842 34.8494 49.9749 62.5902C12.9593 98.8538 0.258645 153.667 0.0079749 205.472C-0.326252 257.277 9.95122 308.665 10.8703 360.47C11.2046 381.192 11.121 404.504 25.827 419.127C37.0236 430.24 53.9021 432.914 69.6107 434.418C176.563 444.611 285.187 424.307 391.638 439.598C405.425 441.603 419.463 444.11 433.25 442.021C455.559 438.512 474.61 422.803 486.726 403.669C498.842 384.618 504.941 362.308 509.787 340.249C518.561 299.975 523.574 259.032 528.588 218.173C531.846 191.685 535.105 164.78 531.429 138.293C523.658 82.5603 482.715 32.844 429.657 14.6287Z" fill="#CAF0F8"/>
<path d="M528.67 218.006C531.928 191.518 535.187 164.613 531.511 138.125C529.422 123.503 525.077 109.298 518.81 95.9294C515.719 96.4307 512.961 96.932 510.454 97.4334C482.463 103.199 454.388 108.129 429.906 123.837C415.033 133.363 402.416 146.147 386.707 154.168C350.861 172.3 307.996 161.688 267.806 161.02C226.696 160.352 186.254 170.713 146.398 180.907C139.63 182.661 131.358 186.421 131.859 193.356C132.026 195.613 133.196 197.869 133.029 200.125C132.611 205.556 125.425 207.31 119.994 206.893C97.8514 205.138 78.5498 192.02 58.2455 183.163C40.5315 175.559 21.5641 171.13 2.34604 170.044C0.925577 181.742 0.173563 193.607 0.0900062 205.305C-0.244221 257.11 10.0333 308.498 10.9524 360.303C11.2866 381.025 11.203 404.337 25.909 418.96C37.1056 430.073 53.9841 432.746 69.6927 434.25C176.645 444.444 285.269 424.14 391.72 439.431C405.507 441.436 419.545 443.943 433.332 441.854C455.641 438.345 474.692 422.636 486.808 403.502C498.924 384.451 505.023 362.141 509.87 340.082C518.559 299.891 523.573 258.948 528.67 218.006Z" fill="#AFE2E8"/>
<path d="M193.274 212.407C205.808 214.079 217.673 215.499 230.29 214.496C232.713 214.329 235.387 214.079 237.309 212.575C239.231 211.071 240.15 207.895 238.395 206.141C217.84 197.117 196.032 189.931 174.976 181.659C171.466 180.238 167.79 178.901 164.03 178.818C158.849 178.734 153.167 181.074 148.739 178.316C144.644 175.726 143.976 170.044 144.812 165.281C145.647 160.519 147.569 155.84 147.068 151.077C145.814 138.293 129.437 133.363 116.653 134.783C103.869 136.12 90.1655 140.465 78.8853 134.449C68.6914 128.934 64.1794 116.902 56.2415 108.379C48.1365 99.773 36.6057 97.0156 24.9913 95.7623C7.02658 128.349 0.258483 167.621 0.0078125 205.389C0.0078125 208.647 0.00781122 211.99 0.0913679 215.248C13.7947 216.084 27.498 216.919 41.2013 217.755C44.7107 218.006 48.7214 218.006 51.3116 215.583C53.6512 213.41 53.9854 209.984 54.9046 206.893C57.4113 198.37 65.2656 191.685 74.1226 190.516C76.88 190.181 80.3058 190.766 81.2249 193.356C81.6427 194.443 81.392 195.696 81.392 196.866C81.3085 203.718 87.3246 209.399 93.9255 211.238C100.527 213.159 107.462 212.24 114.313 211.488C140.55 208.647 167.121 208.982 193.274 212.407Z" fill="#FDFFFC"/>
<path d="M431.577 345.513C459.485 344.343 487.142 337.742 512.627 326.212C519.646 290.449 524.158 254.186 528.586 218.006C531.845 191.518 535.104 164.613 531.427 138.125C530.591 132.109 529.338 126.093 527.751 120.244C508.7 122.5 490.568 135.953 485.304 154.67C480.875 170.295 484.134 188.677 474.107 201.545C472.937 203.133 471.433 204.553 469.595 205.138C462.326 207.478 457.229 198.036 449.876 200.626C445.029 202.297 440.267 211.154 440.1 215.917C440.1 216.919 440.1 217.922 439.682 218.758C438.846 220.429 436.423 220.68 434.752 219.844C433.081 219.008 431.995 217.421 430.908 215.917C426.898 210.235 422.553 204.804 417.121 200.542C407.847 193.273 395.564 189.931 383.866 191.602C368.157 193.858 351.947 204.386 353.284 221.599C354.036 231.041 358.381 239.814 359.05 249.256C359.718 258.698 354.872 269.894 345.513 270.897C340.751 271.398 336.239 269.142 331.727 267.722C319.778 263.962 306.91 265.884 294.627 267.805C252.431 274.406 210.068 281.091 169.292 293.625C166.284 294.544 163.025 295.713 161.521 298.554C159.767 301.897 161.605 306.242 164.697 308.581C167.788 310.837 171.632 311.506 175.392 312.174C233.882 321.867 292.538 330.389 351.195 338.829C377.933 342.756 404.672 346.599 431.577 345.513Z" fill="#FDFFFC"/>
<path d="M504.271 362.308C501.18 360.136 497.253 358.799 493.492 357.796C439.264 342.338 382.863 333.314 331.476 310.169C301.061 296.549 272.234 277.916 239.48 272.15C210.319 267.053 178.985 272.318 151.746 260.62C139.296 255.272 128.016 246.415 114.563 244.66C106.291 243.574 97.8516 245.329 89.7466 247.167C60.8359 253.601 32.0924 260.954 3.59961 269.142C6.52409 299.557 10.2841 329.888 10.869 360.386C11.2033 381.108 11.1197 404.421 25.8257 419.043C37.0223 430.156 53.9007 432.83 69.6094 434.334C176.562 444.528 285.186 424.224 391.637 439.515C405.424 441.52 419.461 444.027 433.248 441.938C455.558 438.428 474.609 422.72 486.724 403.585C494.829 390.885 500.177 376.847 504.271 362.308Z" fill="#16787F"/>
<path d="M500.426 217.17C497.502 218.34 494.494 219.51 492.07 221.599C489.982 223.52 488.478 226.027 486.305 227.865C484.133 229.704 480.707 230.623 478.534 228.868C477.532 223.938 470.513 222.351 466.168 224.857C461.823 227.364 459.4 232.294 457.394 236.89C454.219 243.992 453.3 247 445.696 249.339C421.381 256.86 400.91 274.156 386.204 294.961C388.878 291.201 411.856 289.864 416.953 288.778C427.23 286.689 437.424 284.517 447.618 282.261C468.925 277.665 490.149 272.902 511.288 267.638C515.216 266.636 519.143 265.8 522.652 264.714C524.741 249.172 526.663 233.547 528.585 218.006C529.086 213.744 529.671 209.399 530.089 205.138C520.146 208.898 510.202 213.41 500.426 217.17Z" fill="#55A630"/>
<path d="M356.878 312.675C339.582 322.117 311.674 333.063 291.537 330.139C290.701 330.055 289.782 329.805 289.281 329.053C288.779 328.301 289.03 327.381 289.281 326.546C292.122 317.689 305.825 310.252 312.259 303.568C315.1 300.643 318.108 297.552 321.951 296.131C325.795 294.627 330.725 295.212 333.148 298.554C333.9 299.641 334.485 300.978 335.571 301.73C336.574 302.398 337.827 302.398 339.08 302.398C346.266 302.314 355.207 302.398 358.298 308.832C358.633 309.584 358.883 310.419 358.633 311.088C358.382 311.84 357.63 312.341 356.878 312.675Z" fill="#2B9348"/>
<path d="M196.197 322.452C181.658 317.605 165.866 318.775 150.575 319.945C138.626 320.864 126.761 321.783 114.812 322.702C105.872 323.371 96.7642 324.123 88.2414 326.88C80.7213 329.303 73.5354 333.314 65.5976 333.815C57.9103 334.317 50.3902 331.392 42.7866 330.222C31.59 328.468 19.8085 330.724 9.86523 336.238C10.3666 344.343 10.7844 352.365 10.8679 360.47C11.035 367.823 11.035 375.594 11.787 383.114C32.2584 383.949 64.4278 363.896 78.6324 358.13C116.651 342.589 156.089 330.974 196.197 322.452Z" fill="#AACC00"/>
<path d="M525.911 240.065C510.286 242.906 494.745 245.914 479.203 249.172C459.734 253.267 440.266 257.862 421.883 265.633C397.234 276.078 375.342 292.037 351.194 303.651C327.046 315.266 298.888 322.368 273.57 313.511C263.627 310.002 254.519 304.236 244.241 301.813C231.04 298.638 217.169 301.395 203.884 304.153C186.17 307.829 168.456 311.506 151.326 317.271C110.969 331.058 74.9556 356.459 33.6786 367.154C26.1585 369.076 18.6384 370.497 10.9512 371.583C11.5361 389.046 13.5414 406.927 25.6572 418.876C36.8537 429.989 53.7322 432.663 69.4409 434.167C176.393 444.361 285.017 424.057 391.468 439.347C405.255 441.353 419.293 443.859 433.08 441.771C455.389 438.261 474.44 422.553 486.556 403.418C498.672 384.367 504.771 362.057 509.618 339.998C516.971 307.161 521.65 273.654 525.911 240.065Z" fill="#279DAD"/>
<path d="M503.017 339.748C505.607 338.244 508.197 336.823 510.788 335.486C512.375 328.133 513.796 320.78 515.133 313.427C476.529 324.791 437.341 334.4 397.819 341.67C369.493 346.85 329.887 350.192 305.823 366.82C303.4 368.491 301.144 370.497 300.058 373.171C319.025 373.672 338.577 373.505 356.291 366.737C383.614 356.292 416.285 346.015 446.115 348.187C456.977 348.939 467.839 351.947 478.535 350.192C487.225 348.688 495.163 344.176 503.017 339.748Z" fill="#CAF0F8"/>
<path d="M194.275 361.055C192.604 360.386 193.105 357.796 194.442 356.71C195.779 355.624 197.701 355.289 199.121 354.287C203.299 351.279 200.792 343.926 195.946 341.92C191.183 339.998 185.752 341.67 180.822 343.341C155.337 356.125 124.254 362.642 97.1818 371.834C70.0259 381.108 41.9509 390.049 14.7949 400.159C16.2989 405.089 18.3879 409.685 21.3123 413.779C23.1506 412.943 25.0724 412.191 26.9106 411.356C55.0693 399.324 84.899 391.052 115.23 386.79C119.157 386.205 123.252 385.788 127.095 386.874C129.435 387.542 131.524 388.796 133.947 389.213C136.704 389.715 139.545 388.963 142.219 388.211C197.868 373.087 256.274 350.694 313.427 344.427C335.987 341.92 358.046 334.818 377.765 323.705C379.938 322.452 382.361 320.53 381.943 318.107C381.358 314.848 376.679 314.764 373.42 315.6C344.343 323.036 317.187 332.896 287.691 339.246C256.608 346.098 225.274 352.866 194.275 361.055Z" fill="#16787F"/>
<path d="M486.724 403.585C492.155 395.062 496.333 385.955 499.758 376.429C478.869 381.359 457.897 386.289 437.007 391.135C432.495 392.221 427.231 393.141 423.555 390.3C420.965 388.378 419.795 384.952 417.204 382.947C413.611 380.106 408.515 380.691 404.002 381.443C356.626 389.631 310.001 402.415 265.048 419.628L269.058 413.612C258.697 415.617 248.838 419.962 240.315 426.229C237.558 428.234 234.8 430.741 234.382 434.083C234.382 434.334 234.299 434.585 234.299 434.835C286.94 432.997 339.497 431.994 391.553 439.431C405.339 441.436 419.377 443.943 433.164 441.854C455.641 438.428 474.608 422.636 486.724 403.585Z" fill="#16787F"/>
<path d="M57.4094 434.25C46.2964 405.59 37.3558 375.009 40.6145 344.343C41.3665 337.492 42.7034 330.473 46.4635 324.708C50.2235 318.942 56.741 314.514 63.5926 315.015C70.7785 315.516 76.6274 320.864 80.5546 326.88C84.4818 332.896 87.072 339.664 91.3334 345.43C93.0881 347.853 95.3442 350.192 98.2686 350.944C100.942 351.613 103.7 350.861 106.374 351.028C111.554 351.446 115.816 355.206 118.907 359.384C121.999 363.478 124.422 368.241 128.015 371.834C129.77 373.588 132.026 375.092 134.449 374.591C138.459 373.755 139.211 368.324 138.961 364.23C138.627 358.381 138.376 352.448 138.042 346.599C137.54 337.742 137.206 328.468 140.799 320.363C144.392 312.258 152.079 306.074 160.769 304.236C162.858 303.818 165.114 303.568 167.203 304.32C173.553 306.409 174.556 314.764 175.475 321.365C176.394 328.384 178.4 335.236 181.408 341.586C182.16 343.09 182.995 344.761 184.583 345.346C186.672 346.182 188.928 344.928 191.1 344.343C197.868 342.422 204.971 347.351 208.647 353.368C212.324 359.384 213.66 366.569 216.334 373.087C217.003 374.674 217.838 376.429 219.509 377.098C220.763 377.599 222.1 377.432 223.437 377.432C227.782 377.599 231.625 380.691 233.798 384.451C235.97 388.211 236.806 392.639 237.474 396.901C238.978 406.927 239.73 417.038 239.647 427.232C239.647 428.401 239.563 429.738 238.727 430.657C237.808 431.66 236.388 431.744 235.051 431.827C180.488 434.167 125.508 428.819 71.3634 436.089C66.35 436.757 60.4175 437.258 56.9081 433.582" fill="#55A630"/>
<path d="M133.696 422.636C128.265 415.367 119.826 407.93 111.219 410.771C105.872 412.526 101.861 418.04 96.2627 418.208C92.7534 418.291 89.5782 416.202 86.988 413.863C80.2199 407.679 76.042 399.24 72.4491 390.717C65.1796 373.254 59.9991 354.955 57.1582 336.238C56.2391 330.306 57.9938 322.786 59.08 315.349C53.8995 316.519 49.3039 320.196 46.3794 324.708C42.6193 330.473 41.1989 337.492 40.5304 344.343C37.3553 374.925 46.1287 405.423 57.2418 434.083C60.7511 437.342 66.433 436.841 71.2793 436.256C94.0903 433.164 117.152 432.329 140.214 432.245C138.208 428.903 136.036 425.728 133.696 422.636Z" fill="#2B9348"/>
<path d="M57.4076 434.25C57.4076 434.167 57.4076 434.167 57.324 434.083C57.1569 433.916 57.0734 433.833 56.9062 433.666L57.4076 434.25Z" fill="#2B9348"/>
<path d="M161.854 412.442C164.193 414.865 167.369 417.372 170.627 416.453C175.307 415.116 175.307 408.431 174.22 403.669C169.959 384.284 165.781 364.815 161.52 345.43C159.765 337.325 158.01 329.22 158.261 320.948C158.428 315.099 159.765 309.25 162.522 304.153C161.937 304.236 161.353 304.32 160.851 304.403C152.161 306.242 144.474 312.425 140.881 320.53C137.288 328.635 137.706 337.91 138.124 346.767C138.458 352.616 138.709 358.548 139.043 364.397C139.21 367.405 138.876 371.082 137.121 373.17C142.636 387.709 150.908 401.246 161.854 412.442Z" fill="#2B9348"/>
<path d="M96.6787 365.149C96.6787 367.823 97.8485 370.413 99.1854 372.753C103.53 380.941 109.212 388.378 115.813 394.895C116.983 395.981 118.153 397.151 119.657 397.569C121.161 398.07 123.083 397.736 124.002 396.399C125.255 394.645 124.085 392.221 122.999 390.383C118.32 382.779 113.641 375.092 108.962 367.489C106.455 363.561 96.6787 352.95 96.6787 365.149Z" fill="#AACC00"/>
<path d="M233.713 384.534C231.54 380.774 227.697 377.683 223.352 377.515C222.015 377.432 220.678 377.683 219.425 377.181C217.837 376.513 216.918 374.842 216.249 373.17C213.576 366.653 212.239 359.467 208.562 353.451C205.554 348.521 200.29 344.343 194.775 344.009C200.959 351.613 205.471 360.553 207.977 370.079C209.732 376.931 211.487 385.286 218.171 387.375C219.926 387.96 221.764 387.96 223.519 388.545C227.613 390.049 229.702 394.561 231.206 398.655C234.883 408.933 237.473 419.544 238.81 430.407C239.395 429.488 239.478 428.318 239.478 427.232C239.562 417.121 238.81 406.927 237.306 396.901C236.721 392.723 235.969 388.294 233.713 384.534Z" fill="#AACC00"/>
<path d="M287.272 410.27C316.099 417.121 346.18 416.035 375.592 418.625C400.074 420.798 428.232 417.623 444.442 439.932C445.111 440.768 445.696 441.77 445.696 442.857C445.612 445.28 442.437 445.948 440.014 445.948C351.778 446.283 263.626 446.617 175.39 446.951C158.511 447.035 141.132 444.946 123.835 445.113C105.202 445.28 86.569 445.029 67.9359 445.363C62.6718 445.447 55.5695 443.859 55.6531 438.595C55.6531 436.005 57.6584 433.833 59.6638 432.161C82.9761 412.442 117.151 415.032 146.563 406.593C163.441 401.747 179.317 393.057 196.78 390.717C227.446 386.623 256.941 403 287.272 410.27Z" fill="#4A8703"/>
<path d="M191.267 439.264C194.776 439.347 198.202 439.097 201.628 438.345C202.547 438.094 203.549 437.843 204.301 437.175C205.053 436.506 205.388 435.337 204.886 434.501C204.552 433.833 203.8 433.582 203.048 433.331C196.614 431.159 191.183 430.908 185.418 427.065C180.488 423.722 173.135 421.299 171.046 415.116C170.795 414.28 170.628 413.445 170.879 412.609C171.547 410.938 173.72 410.52 175.558 410.52C203.466 409.601 231.959 412.191 257.861 422.72C271.314 428.234 284.767 434.668 299.305 436.339C307.41 437.258 315.85 436.506 323.203 432.914C324.122 432.412 325.124 431.911 325.709 430.992C326.294 430.073 326.461 428.819 325.709 428.067C325.124 427.399 324.038 427.315 323.119 427.232C317.187 426.814 311.338 426.48 305.405 426.062C300.977 425.811 295.796 425.393 292.287 422.218C288.527 418.792 285.936 415.283 281.174 412.609C277.664 410.604 273.988 408.431 270.813 405.758C246.08 397.903 221.765 387.459 196.364 390.801C178.9 393.141 163.024 401.83 146.146 406.677C116.818 415.032 82.6429 412.526 59.247 432.245C57.2417 433.916 55.2363 436.005 55.2363 438.679C55.2363 443.943 62.3386 445.531 67.5192 445.447C86.1523 445.113 104.785 445.363 123.419 445.196C133.696 445.113 144.057 445.781 154.335 446.366C154.418 446.283 154.418 446.283 154.502 446.199C160.936 440.768 166.785 438.01 175.14 438.345C180.655 438.345 185.919 439.18 191.267 439.264Z" fill="#5FBE00"/>
<path d="M319.611 304.654C293.457 291.953 267.972 277.164 239.396 272.234C210.235 267.137 178.901 272.401 151.662 260.703C139.212 255.355 127.931 246.498 114.479 244.744C113.894 244.66 113.225 244.577 112.557 244.577C109.048 247.919 108.797 252.18 114.228 257.779C124.171 268.056 137.624 274.741 151.745 276.997C166.033 279.336 180.823 274.824 195.111 273.989C196.03 273.905 197.116 273.905 197.952 274.323C198.788 274.741 199.456 275.827 199.038 276.662C198.788 277.247 198.119 277.582 197.451 277.832C189.179 281.342 179.319 281.007 172.217 286.522C171.297 287.191 170.378 288.444 171.047 289.447C171.548 290.115 172.467 290.115 173.303 290.115C184.75 289.447 197.785 289.363 208.898 286.355C219.092 283.598 229.119 282.846 239.814 284.183C266.552 287.441 292.705 304.236 319.611 304.654Z" fill="#279DAD"/>
<path d="M166.286 121.331C164.113 128.516 160.103 135.285 159.518 142.721C159.016 149.322 161.189 155.84 161.941 162.524C162.191 165.031 162.359 167.788 163.863 169.794C165.367 171.882 168.792 172.718 170.38 170.796C168.876 162.691 165.701 154.753 165.784 146.565C165.868 138.543 169.127 130.94 171.968 123.42C174.474 116.819 176.73 110.134 178.736 103.449C179.571 100.609 180.323 97.0992 178.151 94.9267C175.059 91.8351 173.472 94.5089 172.72 97.1827C171.55 101.11 169.461 105.037 168.709 109.048C167.79 113.142 167.539 117.236 166.286 121.331Z" fill="#011627"/>
<path d="M168.205 148.487C167.202 151.578 165.866 154.503 164.863 157.594C163.108 163.192 162.941 169.041 162.774 174.89C162.44 185.335 162.273 195.78 162.105 206.308C162.105 208.146 162.105 209.984 162.774 211.655C163.777 214.078 166.033 215.75 168.289 217.17C182.744 226.027 200.124 229.202 217.002 228.534C224.94 228.2 232.962 227.03 240.147 223.604C242.069 222.685 243.991 221.599 245.328 219.927C246.748 218.173 247.5 215.833 248.085 213.661C250.592 204.469 251.929 195.111 253.266 185.669C254.603 175.977 255.773 166.284 256.19 156.508C256.859 139.045 254.853 121.414 250.258 104.536C250.007 103.533 249.673 102.447 248.921 101.611C247.918 100.609 246.331 100.358 244.91 100.274C224.272 98.3525 203.466 97.684 182.744 98.3525C179.402 98.436 175.14 98.6032 172.299 100.692C167.453 104.201 169.375 116.735 169.709 121.832C170.21 130.772 170.962 139.88 168.205 148.487Z" fill="#0C1B3A"/>
<path d="M250.341 104.536C250.091 103.533 249.756 102.447 249.004 101.611C248.002 100.609 246.414 100.358 244.994 100.274C224.355 98.3525 203.55 97.684 182.827 98.3525C179.485 98.436 175.224 98.6032 172.383 100.692C169.375 102.865 168.957 108.63 169.208 113.894C177.146 116.986 185.668 118.155 193.857 120.579C195.361 120.996 196.949 121.498 198.202 122.5C201.377 124.924 201.711 129.603 201.711 133.613C201.795 148.487 201.878 163.276 201.795 178.149C201.795 183.664 201.711 189.179 200.959 194.526C199.873 201.963 197.283 209.149 194.776 216.251C194.275 217.504 193.773 218.925 192.604 219.593C191.768 220.095 190.682 220.095 189.679 220.095C183.747 220.095 177.731 219.677 171.882 218.925C185.585 226.361 201.628 229.035 217.336 228.45C225.274 228.116 233.296 226.946 240.482 223.52C242.403 222.601 244.325 221.515 245.662 219.844C247.083 218.089 247.835 215.75 248.419 213.577C250.926 204.386 252.263 195.028 253.6 185.586C254.937 175.893 256.107 166.201 256.524 156.424C256.942 139.045 254.937 121.414 250.341 104.536Z" fill="#011627"/>
<path d="M214.079 110.552C211.238 110.218 208.062 109.549 205.723 111.22C204.887 111.805 204.302 112.724 203.55 113.309C201.796 114.562 199.456 114.395 197.367 114.228C188.009 113.309 178.734 112.306 169.376 111.387C168.289 105.873 167.203 100.274 166.117 94.7595C165.281 90.5817 164.529 86.2368 165.783 82.226C167.705 76.1264 174.222 72.3663 180.572 71.4472C197.451 69.0241 215.248 70.7788 232.377 71.113C233.714 71.113 235.051 71.1966 236.305 71.6143C237.976 72.1992 239.313 73.5361 240.482 74.9566C247.251 82.9781 250.76 93.6733 250.091 104.201C237.976 107.126 226.528 110.552 214.079 110.552Z" fill="#AA0723"/>
<path d="M154.837 159.432C154.503 161.02 154.503 162.775 154.169 164.279C153.667 167.036 152.581 169.71 151.746 172.467C149.406 180.489 147.317 188.594 145.479 196.699C144.643 200.459 143.891 204.553 145.228 208.146C147.317 213.911 153.751 216.585 159.6 218.423C164.112 219.927 168.875 221.264 173.637 221.014C178.4 220.763 183.33 218.674 185.837 214.58C187.675 211.488 187.926 207.728 188.176 204.135C188.928 191.268 190.014 178.734 191.519 165.95C191.769 163.777 191.936 161.605 191.519 159.432C191.101 157.344 189.931 155.255 188.009 154.168C186.171 153.166 183.998 153.166 181.826 153.249C175.977 153.416 170.128 153.5 164.279 153.667C161.271 153.751 157.845 154.001 156.09 156.424C155.338 157.511 155.004 158.43 154.837 159.432Z" fill="#E71D36"/>
<path d="M189.516 155.756C187.845 158.597 184.753 160.519 182.581 163.109C179.239 167.12 178.319 172.551 177.484 177.731C175.562 188.677 173.055 199.54 169.964 210.235C169.462 212.073 168.627 214.162 166.872 214.747C165.702 215.165 164.366 214.831 163.112 214.496C158.517 213.243 153.837 212.491 149.075 212.24C148.657 212.24 148.239 212.24 147.821 212.24C150.829 215.332 155.341 217.17 159.603 218.507C164.115 220.011 168.878 221.348 173.64 221.097C178.403 220.847 183.333 218.758 185.84 214.663C187.678 211.572 187.929 207.812 188.179 204.219C188.931 191.351 190.017 178.818 191.521 166.033C191.772 163.861 191.939 161.688 191.521 159.516C191.104 158.263 190.519 156.842 189.516 155.756Z" fill="#AA0723"/>
<path d="M154.086 161.354C154.003 162.858 154.003 164.362 154.086 165.866C154.086 167.036 154.003 168.373 154.504 169.459C155.005 170.545 156.175 170.796 157.261 170.88C158.682 171.047 160.186 171.047 161.606 170.963C164.531 170.88 167.539 170.545 170.463 170.378C171.8 170.295 173.221 170.211 174.557 170.044C175.727 169.877 176.897 169.71 177.983 169.041C179.237 168.289 180.156 167.036 181.075 165.95C182.161 164.613 183.247 163.36 184.334 162.023C184.668 161.605 184.083 161.02 183.749 161.438C182.83 162.524 181.994 163.527 181.075 164.613C180.239 165.616 179.487 166.618 178.568 167.454C176.73 169.209 174.056 169.209 171.717 169.292C169.043 169.459 166.285 169.71 163.612 169.877C162.275 169.961 160.938 170.044 159.601 170.044C159.016 170.044 158.431 170.044 157.763 169.961C157.178 169.877 156.342 169.877 155.841 169.543C155.256 169.209 155.172 168.54 155.089 167.955C155.005 167.203 155.005 166.535 155.005 165.783C154.922 164.279 154.922 162.691 155.005 161.187C154.922 160.853 154.086 160.853 154.086 161.354Z" fill="#AA0723"/>
<path d="M152.246 191.936C152.163 192.521 152.163 193.189 152.33 193.774C152.998 195.278 155.004 195.362 156.591 195.195C157.176 195.111 157.845 195.028 158.179 194.61C158.429 194.359 158.513 193.941 158.597 193.607C160.184 185.669 162.942 177.898 166.534 170.629C167.036 169.626 170.127 164.279 168.958 163.36C168.54 163.025 167.871 163.025 167.287 163.025C165.866 163.109 164.446 163.276 163.025 163.36C162.774 163.36 162.44 163.443 162.273 163.61C162.106 163.777 162.022 163.945 161.939 164.112C158.346 172.969 153.333 182.327 152.246 191.936Z" fill="#FF9F1C"/>
<path d="M240.481 74.9566C240.397 75.0402 240.314 75.1237 240.23 75.2073C238.893 76.21 237.222 76.6278 235.635 77.0456C228.616 78.8838 221.513 80.6385 214.495 82.4767C209.063 83.8972 203.549 85.3177 197.867 85.4848C194.19 85.5683 190.514 85.1505 186.837 84.7328C182.075 84.1479 177.395 83.6465 172.633 83.0616C171.881 82.9781 171.129 82.8945 170.46 82.5603C168.956 81.8083 168.455 79.8865 168.706 78.2153C168.789 77.714 168.873 77.2962 169.04 76.8784C167.536 78.3825 166.366 80.1371 165.698 82.2261C163.525 88.9942 165.363 97.7676 165.614 104.786C165.698 106.374 165.781 107.962 166.533 109.298C168.622 112.975 176.142 112.056 179.652 112.39C185.5 112.975 191.349 113.56 197.198 114.228C199.287 114.479 201.627 114.646 203.382 113.309C204.217 112.724 204.802 111.805 205.554 111.22C207.81 109.466 211.069 110.134 213.91 110.552C226.36 110.552 237.807 107.126 249.923 104.118C250.758 93.6733 247.249 82.9781 240.481 74.9566Z" fill="#E71D36"/>
<path d="M201.962 82.5602C201.878 87.5736 201.794 92.587 201.711 97.5169C201.711 99.5223 201.711 101.444 201.794 103.449C201.878 105.288 201.878 107.126 201.627 108.881C201.46 109.883 201.126 110.802 200.708 111.722C200.458 112.139 200.207 112.641 199.873 112.975C199.789 113.142 198.954 114.228 198.786 114.145C198.87 114.228 198.954 114.312 199.037 114.312C199.037 114.312 199.037 114.312 199.037 114.228C199.037 114.312 199.037 114.479 199.121 114.562C199.037 114.646 198.954 114.646 198.87 114.73C198.703 114.646 198.619 114.562 198.452 114.395C198.452 114.395 198.452 114.395 198.452 114.479C198.619 114.98 199.371 114.813 199.288 114.228C199.288 114.228 199.288 114.228 199.288 114.145C199.204 113.978 199.037 113.894 198.87 113.81C198.034 113.727 198.201 115.231 199.204 114.813C199.622 114.646 200.04 114.145 200.29 113.81C200.625 113.393 200.959 112.975 201.21 112.474C202.212 110.719 202.63 108.713 202.714 106.792C202.797 104.619 202.63 102.53 202.63 100.358C202.63 97.6004 202.714 94.9266 202.714 92.1693C202.797 88.9105 202.797 85.6518 202.881 82.3931C202.797 82.0589 201.962 82.0589 201.962 82.5602Z" fill="#AA0723"/>
<path d="M168.957 163.276C168.79 163.109 168.54 163.025 168.289 163.025C166.116 165.449 164.78 168.457 163.526 171.548C161.437 176.979 159.599 182.494 158.179 188.092C157.844 189.513 157.427 190.933 156.591 192.103C155.755 193.273 154.251 194.108 152.831 193.858C152.664 193.774 152.413 193.774 152.246 193.691C152.246 193.774 152.246 193.774 152.246 193.858C152.915 195.362 154.92 195.445 156.507 195.278C157.092 195.195 157.761 195.111 158.095 194.693C158.346 194.443 158.429 194.025 158.513 193.691C160.1 185.753 162.858 177.982 166.451 170.713C167.119 169.543 170.211 164.279 168.957 163.276Z" fill="#ED860A"/>
<path d="M169.96 413.194C165.783 410.019 165.198 407.011 163.359 402.415C161.271 404.254 161.187 406.76 161.521 409.267C161.772 411.69 162.775 413.946 163.861 416.119C165.031 418.458 166.2 420.714 167.621 422.887C169.626 425.978 172.133 428.819 174.89 431.326C176.729 432.914 178.734 434.418 181.073 435.17C182.494 435.587 184.082 435.755 185.586 435.922C191.769 436.507 198.119 437.091 204.135 435.671C205.305 435.42 206.558 435.003 207.227 434C208.229 432.496 207.477 430.323 206.057 429.154C204.636 427.984 202.715 427.733 200.96 427.315C189.763 424.976 179.068 420.129 169.96 413.194Z" fill="#011627"/>
<path d="M197.367 418.876C194.442 416.954 191.518 415.283 189.262 412.609C189.011 412.275 188.677 411.857 188.593 411.439C188.593 411.022 188.76 410.687 188.927 410.27C191.685 405.006 194.693 399.909 197.952 394.979C193.774 390.801 186.671 383.03 180.822 381.61C178.399 384.534 175.726 387.459 173.052 390.133C169.459 393.642 166.116 397.402 163.108 401.329C162.524 402.081 162.022 402.833 161.855 403.669C161.604 404.671 161.939 405.758 162.273 406.76C164.78 414.531 170.044 425.393 176.979 430.323C179.82 432.329 183.329 432.83 186.755 433.248C192.27 433.833 197.784 434.167 203.299 434.083C204.97 434.083 206.976 433.833 207.644 432.329C207.978 431.577 207.895 430.658 207.728 429.822C206.307 424.892 201.628 421.717 197.367 418.876Z" fill="#E71D36"/>
<path d="M201.21 428.318C198.703 428.652 196.364 429.906 193.857 430.323C189.345 431.159 184.749 429.404 180.906 426.981C179.652 426.145 178.399 425.31 177.396 424.14C176.394 423.054 175.642 421.801 174.973 420.547C173.469 417.957 168.205 405.674 163.359 401.078C163.275 401.246 163.192 401.329 163.024 401.413C162.44 402.165 161.938 402.917 161.771 403.752C161.52 404.755 161.855 405.841 162.189 406.844C164.696 414.615 169.96 425.477 176.895 430.407C179.736 432.412 183.245 432.914 186.671 433.331C192.186 433.916 197.701 434.25 203.215 434.167C204.886 434.167 206.892 433.916 207.56 432.412C207.894 431.66 207.811 430.741 207.644 429.906V429.822C205.388 428.736 203.215 428.067 201.21 428.318Z" fill="#FDFFFC"/>
<path d="M185.834 394.895C183.494 397.235 181.489 399.825 179.651 402.582C178.732 403.919 177.812 405.423 177.395 407.011C176.977 408.515 177.311 410.019 178.147 411.272C179.066 412.609 180.236 413.779 181.322 414.949C182.492 416.202 183.661 417.372 184.915 418.542C187.338 420.881 189.928 422.97 192.602 425.059C195.109 426.897 198.033 428.903 198.702 432.162C198.785 432.663 199.621 432.496 199.537 431.911C198.952 429.237 196.947 427.315 194.858 425.728C192.351 423.806 189.845 421.884 187.505 419.795C185.082 417.623 182.742 415.283 180.486 412.86C179.484 411.69 178.23 410.437 178.063 408.849C177.896 407.178 178.815 405.591 179.651 404.17C181.573 400.995 183.829 398.07 186.419 395.397C186.753 395.146 186.168 394.561 185.834 394.895Z" fill="#FDFFFC"/>
<path d="M269.141 200.459C267.136 200.041 263.459 158.263 262.791 153.834C260.618 140.131 260.702 128.015 253.6 115.816C253.6 116.401 253.6 116.902 253.6 117.487C259.365 118.657 265.799 123.42 269.893 127.597C273.068 130.856 275.408 134.7 277.664 138.627C284.933 151.327 291.367 164.362 298.47 177.146C298.887 177.815 299.222 178.567 299.305 179.403C299.389 180.322 299.054 181.241 298.72 182.076C297.885 184.165 297.049 186.338 296.13 188.427C294.041 193.691 288.443 199.205 283.012 200.877C278.583 202.381 273.737 201.461 269.141 200.459Z" fill="#5FBE00"/>
<path d="M296.132 188.51C296.967 186.421 297.803 184.249 298.722 182.16C299.056 181.324 299.391 180.405 299.307 179.486C299.224 178.65 298.806 177.982 298.472 177.23C298.221 176.812 297.97 176.311 297.719 175.893C294.544 177.314 291.035 178.316 287.609 178.734C286.606 178.818 285.52 178.901 284.601 178.483C283.515 178.066 282.846 177.063 282.261 176.144C280.423 173.052 279.504 169.543 278.501 166.033C275.577 156.09 271.232 146.565 265.55 137.875C263.879 137.958 262.375 138.46 261.038 139.379C261.707 144.058 262.208 148.821 262.96 153.834C263.461 157.093 265.55 180.155 267.472 192.604C268.725 195.362 269.979 198.119 271.316 200.877C275.326 201.712 279.421 202.213 283.264 201.044C288.445 199.373 294.043 193.774 296.132 188.51Z" fill="#4A8703"/>
<path d="M286.772 178.316C283.931 180.823 281.257 183.413 278.667 186.171C277.581 187.424 276.411 188.677 275.826 190.181C275.241 191.518 275.074 193.022 275.074 194.526C274.907 199.623 276.578 205.138 280.923 207.728C283.764 209.399 287.273 209.566 290.448 208.814C293.623 208.062 296.631 206.558 299.472 204.971C301.06 204.135 302.731 203.216 304.235 202.13C307.995 199.456 310.92 195.613 311.922 191.1C312.925 186.672 311.755 181.659 308.413 178.483C306.825 176.979 304.904 175.893 303.065 174.89C302.063 174.389 300.893 173.386 299.807 173.136C294.877 171.799 290.198 175.308 286.772 178.316Z" fill="#87ED03"/>
<path d="M276.996 180.99C275.826 165.532 273.737 150.325 270.061 135.285C268.223 127.848 266.134 119.743 257.527 118.406C257.945 118.49 260.118 125.007 260.368 125.676C261.538 128.684 262.624 131.775 263.711 134.867C265.883 140.966 267.888 147.233 269.81 153.416C271.314 158.263 272.651 163.193 273.988 168.122C274.656 170.629 275.325 173.219 275.91 175.81C276.328 177.314 277.414 179.403 276.996 180.99Z" fill="#0C1B3A"/>
<path d="M346.766 154.419C345.596 156.007 344.092 157.344 342.504 158.43C341.836 158.848 341.168 159.265 340.416 159.349C339.664 159.432 338.828 159.182 338.327 158.513C336.238 159.934 333.815 160.936 331.308 161.187C330.639 161.271 329.971 161.354 329.47 161.688C329.052 161.939 328.885 162.44 328.634 162.858C323.788 172.217 319.777 181.993 313.176 190.265C309.834 194.443 305.99 198.37 301.144 200.793C293.707 204.469 279.67 203.133 280.589 191.769C280.923 187.675 284.349 184.667 287.524 181.993C295.462 175.225 302.648 167.621 308.998 159.432C311.505 156.174 315.265 152.414 317.02 148.737C319.025 144.559 317.772 139.713 319.443 135.368C320.362 133.279 322.2 131.357 324.456 131.107C325.292 131.023 326.211 131.19 326.963 131.441C328.133 129.603 329.553 127.514 331.308 126.177C333.063 124.84 336.154 124.84 338.243 125.425C340.499 126.093 341.335 128.767 340.917 130.94C342.588 130.355 344.176 131.107 344.844 132.778C345.596 134.616 345.095 136.204 344.426 137.875C344.928 137.624 345.512 137.791 345.93 138.042C348.521 139.379 348.688 143.055 347.1 145.311C348.019 145.562 348.604 146.398 348.855 147.317C349.105 148.236 348.938 149.155 348.771 150.074C348.437 151.745 347.769 152.915 346.766 154.252C346.849 154.335 346.849 154.335 346.766 154.419Z" fill="#FF8C60"/>
<path d="M381.529 314.347C383.618 320.948 385.54 327.883 388.297 334.066C388.381 334.233 388.548 334.149 388.632 334.066C388.715 333.899 388.632 333.732 388.632 333.565C387.963 328.802 386.877 323.956 385.874 319.193C385.456 317.438 385.039 315.683 384.621 313.929C384.621 313.845 384.537 313.762 384.537 313.678C384.454 313.678 384.454 313.678 384.37 313.678C383.368 313.845 382.365 314.012 381.529 314.347Z" fill="#B5BFAF"/>
<path d="M342.675 163.861C345.683 174.222 360.222 226.027 363.23 236.472C370.667 262.541 378.187 288.611 385.623 314.597L381.111 315.6C369.831 279.336 347.354 201.461 336.993 164.864L342.675 163.861Z" fill="#DAE2D5"/>
<path d="M321.866 120.662C321.783 120.996 321.783 121.414 321.866 121.832C322.033 123.252 323.036 125.174 323.37 126.762C323.788 128.684 324.624 130.522 325.042 132.444C326.211 137.708 327.465 142.972 328.885 148.152C330.723 154.586 335.57 161.271 333.397 168.206C333.23 168.624 333.147 169.041 333.23 169.459C333.397 170.044 334.066 170.211 334.651 170.295C339.079 170.88 343.424 168.624 346.85 165.783C347.184 165.449 347.602 165.114 347.685 164.696C347.853 163.777 347.017 163.025 346.181 162.608C343.34 161.104 342.756 157.26 342.004 154.335C340.5 148.152 338.912 141.969 337.408 135.702C336.071 130.355 333.648 124.171 333.982 118.573C333.982 118.155 334.066 117.738 333.899 117.32C333.731 116.819 333.23 116.568 332.729 116.317C329.637 114.813 322.618 116.902 321.866 120.662Z" fill="#E71D36"/>
<path d="M346.934 165.699C347.269 165.365 347.686 165.031 347.77 164.613C347.937 163.694 347.101 162.942 346.266 162.524C346.182 162.44 346.099 162.44 346.015 162.357C343.676 162.357 341.42 162.273 339.581 160.936C337.492 159.516 336.657 156.842 335.905 154.419C332.479 143.39 329.053 132.36 325.544 121.247C325.126 119.994 324.875 118.49 324.792 117.153C323.288 117.988 322.118 119.158 321.867 120.579C321.784 120.913 321.784 121.331 321.867 121.748C322.034 123.169 323.037 125.091 323.371 126.678C323.789 128.6 324.625 130.438 325.042 132.36C326.212 137.624 327.466 142.888 328.886 148.069C330.724 154.503 335.571 161.187 333.398 168.122C333.231 168.54 333.147 168.958 333.231 169.376C333.398 169.961 334.067 170.128 334.652 170.211C339.08 170.796 343.509 168.54 346.934 165.699Z" fill="#AA0723"/>
<path d="M347.266 145.311C348.854 143.139 348.77 139.462 346.097 138.042C345.595 137.791 345.01 137.624 344.593 137.875C345.177 136.12 345.762 134.533 345.01 132.778C344.342 131.107 342.754 130.355 341.083 130.94C341.501 128.767 340.665 126.093 338.409 125.425C337.323 125.091 335.903 125.007 334.566 125.091C331.223 127.263 329.552 132.277 329.469 135.953C329.469 137.039 329.469 138.209 330.054 139.128C331.307 141.217 334.315 140.047 335.819 138.878C335.151 139.797 334.733 140.799 334.482 141.886C334.315 142.721 334.315 143.64 334.816 144.392C335.318 145.061 336.237 145.311 337.072 145.311C337.908 145.228 338.66 144.977 339.496 144.643C338.493 145.061 336.905 148.069 336.738 149.155C336.655 149.823 336.738 150.492 337.156 150.993C337.574 151.495 338.242 151.829 338.911 151.829C339.579 151.912 340.248 151.745 340.916 151.662C339.245 153.082 337.908 156.592 338.744 159.015C339.161 159.349 339.83 159.516 340.415 159.432C341.167 159.349 341.919 158.931 342.504 158.513C344.175 157.427 345.595 156.09 346.765 154.503C346.765 154.419 346.849 154.419 346.849 154.336C347.851 152.999 348.52 151.829 348.854 150.158C349.021 149.239 349.188 148.319 348.937 147.4C348.77 146.398 348.185 145.562 347.266 145.311Z" fill="#FF5F5C"/>
<path d="M338.743 143.557C338.994 143.055 338.743 142.387 338.493 141.886C337.072 138.961 334.9 136.454 332.31 134.449C330.973 133.446 329.552 132.611 328.048 131.942C327.714 131.775 327.38 131.608 327.129 131.357C326.377 131.107 325.374 130.94 324.622 131.023C322.366 131.357 320.528 133.196 319.609 135.285C318.356 138.543 318.69 142.053 318.188 145.395C318.356 146.732 318.523 147.985 319.108 149.239C319.693 150.492 320.862 151.495 322.199 151.662C323.62 151.829 324.873 150.993 326.043 150.158C328.717 148.069 330.973 144.977 330.806 141.551C332.56 142.721 334.566 143.557 336.571 144.058C337.156 144.309 338.326 144.392 338.743 143.557Z" fill="#FDBAA0"/>
<path d="M239.814 346.934C227.281 368.324 212.491 391.637 192.438 406.593C192.605 406.51 185.502 402.415 185.085 402.081C183.664 401.078 169.961 390.132 170.964 388.545C177.481 375.594 186.171 363.979 193.607 351.613C206.224 330.807 217.755 308.414 222.852 284.433C225.944 269.811 225.275 255.606 227.364 240.817C228.2 234.633 229.119 228.534 229.955 222.351C242.822 220.262 255.774 218.841 268.725 218.006C269.143 218.006 268.474 248.086 268.307 250.342C265.967 275.075 260.703 299.724 251.679 322.869C248.253 331.392 244.243 339.246 239.814 346.934Z" fill="#0C1B3A"/>
<path d="M173.886 392.639C186.169 378.1 199.873 364.982 211.403 349.942C214.662 345.68 217.921 341.419 221.18 337.158C222.099 335.988 223.018 334.734 223.937 333.565C227.53 329.136 231.457 324.958 236.554 322.619C242.069 320.112 247.166 320.53 251.594 322.702C260.535 299.641 265.882 275.075 268.138 250.426C268.389 248.086 269.057 218.006 268.556 218.089C255.605 218.925 242.654 220.345 229.786 222.434C228.95 228.617 228.031 234.717 227.196 240.9C225.107 255.69 225.775 269.894 222.684 284.517C217.587 308.414 206.056 330.891 193.439 351.696C186.002 364.063 177.312 375.677 170.795 388.629C170.544 389.046 171.881 390.634 173.886 392.639Z" fill="#011627"/>
<path d="M246.835 224.941C244.078 236.973 241.153 248.922 238.062 260.87C234.97 272.819 231.711 284.767 228.202 296.716C226.531 302.565 224.86 308.414 223.021 314.179C221.183 319.861 218.844 325.209 215.585 330.139C212.326 335.069 208.817 339.915 205.558 344.845C202.299 349.775 199.208 354.704 196.2 359.718C190.184 369.828 184.585 380.106 179.405 390.634C178.736 391.971 178.152 393.308 177.483 394.645C177.232 395.146 177.984 395.564 178.235 395.062C183.332 384.451 188.847 374.006 194.779 363.812C200.712 353.618 207.146 343.758 213.914 334.066C215.585 331.643 217.34 329.136 218.76 326.546C220.181 324.039 221.35 321.449 222.353 318.775C224.442 313.177 226.03 307.328 227.784 301.562C231.294 289.697 234.636 277.749 237.727 265.8C240.903 253.852 243.827 241.819 246.668 229.704C247.002 228.2 247.336 226.696 247.754 225.192C247.754 224.69 247.002 224.44 246.835 224.941Z" fill="#18376D"/>
<path d="M196.196 398.07C195.611 397.569 194.943 397.068 194.358 396.65C192.603 395.48 190.932 394.227 189.344 392.806C186.336 390.049 183.746 386.957 180.905 384.116C179.234 382.362 177.563 380.691 175.892 378.936C175.307 379.103 174.722 379.27 174.221 379.604C173.636 379.939 173.218 380.44 172.884 381.025C171.547 382.78 169.458 385.203 169.291 387.542C169.207 389.464 170.544 391.052 171.881 392.389C174.973 395.48 178.315 398.238 181.908 400.744C185.501 403.251 189.428 404.922 193.104 407.178C193.272 407.262 193.439 407.345 193.606 407.345C193.773 407.345 194.024 407.262 194.191 407.095C195.778 406.092 197.366 404.838 198.703 403.502C198.953 403.251 199.204 403 199.371 402.666C199.622 402.081 199.622 401.496 199.538 400.911C199.538 400.828 199.538 400.661 199.455 400.577C199.371 400.41 199.204 400.326 199.037 400.243C198.034 399.658 197.115 398.822 196.196 398.07Z" fill="#18376D"/>
<path d="M242.74 304.57C244.912 306.576 247.169 308.581 248.756 311.004C250.511 313.595 251.43 316.686 252.349 319.694C260.036 345.68 262.71 372.836 269.979 398.655C270.063 399.073 270.23 399.491 270.564 399.742C270.815 399.992 271.233 399.992 271.567 399.992C283.014 400.995 294.712 397.903 304.238 391.553C301.815 369.327 302.065 346.767 297.303 324.791C292.874 304.153 285.27 285.185 273.322 267.889C267.64 259.701 262.042 251.512 256.36 243.323C251.263 235.97 245.33 228.952 243.408 220.011C229.454 217.337 215.083 216.585 200.878 217.755C199.207 229.035 202.8 241.151 206.56 251.763C213.662 272.234 227.282 289.948 242.74 304.57Z" fill="#0C1B3A"/>
<path d="M278.418 400.159C278.418 398.989 278.335 397.736 278.251 396.566C277.081 377.265 275.828 357.88 270.815 339.246C265.801 320.613 256.777 302.565 242.238 289.781C235.804 284.183 228.117 279.253 225.109 271.231C221.767 262.291 225.694 252.013 232.295 245.162C236.473 240.817 241.57 237.558 246.834 234.801C247.669 234.383 248.505 233.965 249.424 233.631C246.667 229.453 244.411 225.108 243.324 220.095C229.371 217.421 214.999 216.669 200.794 217.839C199.123 229.119 202.716 241.234 206.476 251.846C213.578 272.15 227.114 289.864 242.572 304.487C244.745 306.492 247.001 308.498 248.589 310.921C250.343 313.511 251.262 316.603 252.181 319.611C259.869 345.597 262.543 372.753 269.812 398.572C269.896 398.989 270.063 399.407 270.397 399.658C270.648 399.909 271.065 399.909 271.4 399.909C273.823 400.243 276.079 400.326 278.418 400.159Z" fill="#011627"/>
<path d="M303.067 394.477C299.892 396.149 292.873 398.405 291.619 398.906C286.188 401.162 279.253 402.415 273.404 402.75C272.318 402.833 271.064 402.833 270.229 402.081C269.644 401.58 269.393 400.828 269.143 400.159C268.307 397.903 267.388 395.564 266.552 393.308C266.218 392.472 265.884 391.553 265.8 390.634C265.55 386.707 271.733 384.284 274.657 383.114C283.18 379.688 292.455 378.435 301.563 379.521C302.231 379.604 302.983 379.688 303.401 380.189C303.819 380.607 303.986 381.276 304.069 381.944C304.654 385.704 304.738 389.464 304.654 393.224C304.571 393.558 303.986 393.976 303.067 394.477Z" fill="#18376D"/>
<path d="M298.552 387.709C296.296 387.208 293.873 387.375 291.617 387.626C287.105 388.044 282.593 388.378 278.415 390.216C273.736 392.221 271.229 395.23 270.143 399.407C270.226 399.574 270.31 399.742 270.477 399.825C270.727 400.076 271.145 400.076 271.479 400.076C282.843 400.995 294.458 398.07 303.9 391.804C303.398 389.882 301.309 388.294 298.552 387.709Z" fill="#011627"/>
<path d="M278.583 421.801C279.001 423.137 279.585 424.558 280.755 425.393C281.758 426.145 283.095 426.229 284.348 426.313C295.127 426.73 305.906 423.555 315.431 418.458C323.954 413.779 332.895 406.927 338.159 398.572C340.833 394.31 339.746 387.793 334.399 386.205C331.391 385.286 328.132 386.038 325.124 387.041C322.032 388.044 319.024 389.213 315.933 390.467C312.173 391.971 305.822 396.065 301.812 396.065C297.55 396.065 299.723 391.72 296.715 390.383C295.712 389.965 294.626 390.049 293.623 390.049C288.693 390.383 275.575 391.386 273.736 397.486C272.901 400.159 275.408 406.927 275.909 409.768C276.577 413.779 277.246 417.873 278.583 421.801Z" fill="#E71D36"/>
<path d="M338.078 398.488C340.752 394.227 339.666 387.709 334.318 386.122C331.978 385.453 329.388 385.704 326.965 386.372C326.798 386.54 326.631 386.707 326.464 386.874C324.709 388.796 323.456 391.302 321.534 393.057C319.779 394.645 317.44 395.564 315.267 396.566C307.747 399.909 300.561 404.086 293.96 409.016C288.529 413.027 282.764 415.952 278.168 420.965C278.252 421.299 278.335 421.55 278.419 421.884C278.836 423.221 279.421 424.641 280.591 425.477C281.594 426.229 282.931 426.313 284.184 426.396C294.963 426.814 305.742 423.639 315.267 418.542C323.957 413.779 332.814 406.844 338.078 398.488Z" fill="#FDFFFC"/>
<path d="M338.161 390.133C337.91 389.965 337.576 389.798 337.325 389.631C334.818 389.965 332.312 390.968 329.972 392.054C312.258 400.076 295.714 410.52 280.924 423.137C280.506 423.472 280.089 423.889 279.671 424.307C279.922 424.725 280.256 425.143 280.757 425.393C281.76 426.145 283.097 426.229 284.35 426.313C295.129 426.73 305.908 423.555 315.433 418.458C323.956 413.779 332.897 406.927 338.161 398.572C338.996 397.235 339.665 395.814 339.832 394.31C339.915 392.723 339.414 391.052 338.161 390.133Z" fill="#011627"/>
<path d="M209.314 225.776C210.234 237.057 213.325 248.086 218.339 258.28C223.185 268.056 229.702 276.913 236.554 285.352C240.063 289.781 243.74 294.042 247.416 298.387C249.338 300.727 251.343 303.066 253.265 305.322C254.184 306.409 255.104 307.495 255.688 308.748C256.357 310.085 256.691 311.589 257.025 313.01C258.195 318.692 261.12 323.621 262.624 329.22C264.128 334.902 264.88 340.751 266.049 346.516C268.473 358.297 271.982 369.828 275.658 381.359C276.076 382.78 276.578 384.2 276.995 385.62C277.162 386.122 277.998 385.871 277.831 385.37C274.154 373.923 270.478 362.392 267.804 350.694C266.467 344.928 265.632 339.163 264.462 333.398C263.877 330.557 263.209 327.799 262.206 325.042C261.203 322.368 259.95 319.778 258.947 317.02C258.028 314.43 257.861 311.506 256.775 308.999C255.688 306.492 253.6 304.403 251.845 302.314C248.168 297.886 244.408 293.541 240.732 289.112C233.713 280.59 226.861 271.9 221.43 262.207C215.832 252.264 211.988 241.318 210.568 229.954C210.401 228.534 210.234 227.113 210.15 225.693C210.066 225.192 209.231 225.192 209.314 225.776Z" fill="#18376D"/>
<path d="M256.524 74.3717C256.524 75.7922 223.853 72.2828 220.511 71.6979C219.926 76.1264 219.675 79.8865 216.584 83.3958C214.16 86.1532 210.902 88.5764 210.15 92.3364C209.983 93.0049 209.983 93.7569 210.233 94.3418C210.484 94.9267 210.985 95.3444 211.487 95.7622C217.92 101.026 224.772 106.458 232.961 107.794C239.729 108.881 246.58 106.875 253.181 104.953C253.766 104.786 254.351 104.619 254.769 104.118C255.187 103.617 255.27 102.948 255.27 102.363C256.022 93.0049 256.44 83.7301 256.524 74.3717Z" fill="#ED860A"/>
<path d="M206.223 225.609C208.395 226.528 210.652 227.28 212.74 227.782C231.624 232.043 251.678 231.291 270.227 225.609C270.478 209.65 268.473 193.189 267.804 177.146C266.885 156.926 264.796 135.869 254.352 118.49C253.934 117.821 253.516 117.069 252.848 116.651C251.929 115.983 250.759 115.899 249.589 115.816C245.077 115.398 240.648 114.479 236.387 113.142C231.624 111.638 231.123 111.053 227.196 114.228C221.18 119.158 215.665 125.007 212.406 132.193C208.897 139.88 208.228 148.487 207.476 156.842C206.39 169.209 205.053 181.491 203.382 193.774C202.296 202.297 200.123 210.486 199.121 219.008C199.037 219.593 198.954 220.178 199.204 220.763C199.455 221.432 200.04 221.933 200.625 222.351C202.296 223.688 204.218 224.69 206.223 225.609Z" fill="#FDFFFC"/>
<path d="M254.352 118.573C253.934 117.905 253.516 117.153 252.848 116.735C251.929 116.067 250.759 115.983 249.589 115.899C245.077 115.482 240.648 114.562 236.387 113.226C231.624 111.722 231.123 111.137 227.196 114.312C221.18 119.242 215.665 125.091 212.406 132.276C208.897 139.964 208.228 148.57 207.476 156.926C206.39 169.292 205.053 181.575 203.382 193.858C202.296 202.381 200.123 210.569 199.121 219.092C199.037 219.677 198.954 220.262 199.204 220.847C199.455 221.515 200.04 222.016 200.625 222.434C202.296 223.604 204.218 224.69 206.307 225.609C208.479 226.528 210.735 227.28 212.824 227.782C217.002 228.701 221.263 229.453 225.608 229.871C227.781 221.432 228.7 212.574 230.956 204.135C231.374 202.631 231.791 201.127 232.878 200.041C234.298 198.621 236.471 198.286 238.476 197.618C242.152 196.448 245.495 194.108 247.751 191.017C248.252 190.348 248.753 189.262 248.168 188.594C247.918 188.259 247.5 188.176 247.082 188.092C245.495 187.842 243.823 188.259 242.152 188.259C240.481 188.259 238.727 187.842 237.807 186.421C237.139 185.335 237.223 183.831 237.39 182.578C238.392 173.888 238.727 164.864 241.15 156.508C243.656 148.069 242.487 137.457 242.904 128.684C242.988 126.678 243.155 124.589 244.576 123.169C246.748 120.996 250.759 121.999 252.681 124.422C254.602 126.845 254.937 130.104 255.187 133.196C257.777 164.78 259.114 196.532 259.281 228.2C263.042 227.448 266.802 226.528 270.395 225.442C270.645 209.483 268.64 193.022 267.971 176.979C266.969 156.926 264.88 135.953 254.352 118.573Z" fill="#DAE2D5"/>
<path d="M251.598 100.441C250.344 99.773 232.129 90.5817 232.129 91.3338C231.628 97.0156 230.207 102.781 229.539 108.546C229.288 110.886 229.037 113.393 229.873 115.565C231.628 119.827 237.059 122.083 240.485 125.007C242.574 126.762 244.997 128.6 247.67 128.266C250.094 127.932 252.015 125.759 252.767 123.42C254.606 117.403 253.185 109.048 253.102 102.781C253.102 102.363 253.102 101.862 252.851 101.528C252.6 101.026 252.099 100.692 251.598 100.441Z" fill="#FF5F5C"/>
<path d="M245.912 129.436C245.912 126.344 244.826 124.422 242.654 122.333C238.225 118.072 236.136 113.309 232.543 108.463C227.028 111.972 220.511 112.975 214.579 115.732C208.228 118.657 202.045 122.25 196.865 127.096C182.743 140.298 175.725 159.516 167.787 176.645C167.453 177.397 167.035 178.316 167.285 179.152C167.453 179.904 168.121 180.489 168.789 180.99C175.056 185.92 183.746 189.847 191.851 189.262C190.347 202.046 187.423 214.663 183.161 226.863C182.827 227.698 182.576 228.617 182.827 229.453C183.078 230.121 183.663 230.623 184.331 231.124C192.603 237.391 201.794 242.404 211.571 245.914C212.49 246.248 223.853 221.933 224.94 219.593C229.201 210.151 232.877 200.375 235.217 190.181C237.39 180.656 238.643 171.465 241.066 161.939C242.069 158.096 243.155 154.168 243.74 150.241C243.991 148.654 243.991 147.15 244.575 145.729C245.829 142.47 245.996 138.209 246.079 134.7C246.079 133.948 246.079 133.279 246.079 132.527C245.912 131.441 245.912 130.438 245.912 129.436Z" fill="#5FBE00"/>
<path d="M263.294 249.507C262.793 228.868 262.375 208.313 261.874 187.675C261.456 167.955 260.955 148.069 256.944 128.767C255.774 123.252 253.017 120.077 250.594 115.231C260.036 118.155 264.381 128.767 267.222 138.293C277.583 173.637 283.599 211.321 283.014 248.253C276.914 249.089 270.814 249.841 264.715 250.676" fill="#5FBE00"/>
<path d="M261.62 128.767C260.952 132.193 260.367 136.454 258.779 139.63C258.529 133.697 256.857 127.848 253.933 122.751C252.93 120.996 251.76 119.242 251.008 117.32C250.256 115.398 250.006 113.226 250.758 111.304C253.849 114.061 258.111 113.978 260.617 117.988C262.539 121.08 262.372 125.174 261.62 128.767Z" fill="#87ED03"/>
<path d="M241.736 123.921C238.477 117.905 233.881 112.641 230.622 106.625C211.989 110.218 227.197 129.77 228.784 139.964C228.283 136.789 235.552 128.182 239.229 129.268C239.981 129.519 240.315 130.438 240.399 131.274C240.816 133.864 241.318 136.454 241.736 139.045C244.242 134.449 244.242 128.6 241.736 123.921Z" fill="#8FDD14"/>
<path d="M229.367 87.7408C225.941 77.2127 228.197 55.4879 240.23 50.7252C251.343 46.3803 266.717 47.8843 271.814 59.9164C275.49 68.5228 275.073 80.8056 275.24 89.9969C275.323 94.676 275.407 99.6059 273.402 103.867C267.887 115.899 252.011 109.8 243.822 104.452C237.556 100.358 231.707 94.9267 229.367 87.7408Z" fill="#FF8C60"/>
<path d="M250.927 69.609C250.927 69.5254 251.01 69.4419 251.01 69.3583C251.094 69.1912 250.927 69.4419 251.01 69.2748C251.094 69.1076 251.178 69.0241 251.261 68.857C251.178 69.0241 251.345 68.7734 251.345 68.7734C251.428 68.6899 251.428 68.6899 251.512 68.6063C251.595 68.5227 251.595 68.5227 251.679 68.4392C251.595 68.5227 251.762 68.4392 251.762 68.3556C251.93 68.2721 252.013 68.1885 252.18 68.105C252.013 68.1885 252.264 68.105 252.264 68.105C252.347 68.105 252.347 68.105 252.431 68.0214C252.515 68.0214 252.598 68.0214 252.682 67.9378C252.765 67.9378 252.765 67.9378 252.682 67.9378H252.765C252.849 67.9378 252.932 67.9378 253.016 67.9378C253.016 67.9378 253.267 67.9378 253.183 67.9378C253.099 67.9378 253.267 67.9378 253.267 67.9378C253.35 67.9378 253.434 68.0214 253.517 68.0214C253.684 68.105 253.434 67.9378 253.601 68.0214C253.684 68.0214 253.768 68.105 253.768 68.105C253.851 68.105 253.935 68.1885 253.935 68.1885C254.102 68.3556 253.851 68.105 254.019 68.2721C254.102 68.3556 254.269 68.5227 254.353 68.6063C254.52 68.7734 254.269 68.5227 254.436 68.6899C254.52 68.7734 254.52 68.857 254.603 68.857C254.603 68.9405 254.687 69.0241 254.687 69.0241C254.771 69.1912 254.687 68.9405 254.687 69.1076C254.771 69.2748 254.771 69.3583 254.771 69.5254V69.609C254.771 69.5254 254.771 69.5254 254.771 69.609C254.771 69.6925 254.771 69.7761 254.771 69.8596C254.771 70.2774 255.188 70.6952 255.606 70.6952C256.024 70.6952 256.442 70.361 256.442 69.8596C256.442 68.105 255.105 66.3503 253.267 66.1832C251.512 65.9325 249.674 67.1023 249.172 68.857C249.089 69.2748 249.339 69.7761 249.757 69.8596C250.342 70.2774 250.76 70.1103 250.927 69.609Z" fill="#0C1B3A"/>
<path d="M264.797 51.8114C270.479 60.9191 272.317 72.0321 274.072 82.7274C274.489 85.2341 274.907 87.7408 275.241 90.2475C275.241 90.1639 275.241 90.0804 275.241 90.0804C275.074 80.8891 275.492 68.6063 271.816 60C270.228 56.3235 267.805 53.6496 264.797 51.8114Z" fill="#FDBAA0"/>
<path d="M255.942 109.549C249.09 100.609 245.163 89.9133 241.236 79.3016C240.484 77.2963 239.732 75.2074 239.899 73.1184C240.15 69.5255 242.823 66.601 244.494 63.3423C246.416 59.6658 247.001 55.3209 246.166 51.3101L245.915 51.6444C246.082 50.9759 245.831 50.1403 245.246 49.5554C245.163 49.4719 244.996 49.3883 244.912 49.2212C243.241 49.5554 241.654 50.0568 240.15 50.6417C228.117 55.3209 225.778 77.0456 229.287 87.6573C231.627 94.8432 237.476 100.358 243.826 104.452C247.168 106.625 251.68 108.881 256.276 110.05C256.192 109.883 256.025 109.716 255.942 109.549Z" fill="#F97560"/>
<path d="M270.145 71.113C270.145 71.4473 270.145 71.1966 270.145 71.113C270.229 70.9459 270.145 71.2801 270.145 71.113C270.229 71.0295 270.229 71.0295 270.229 71.0295C270.312 70.9459 270.312 70.8624 270.396 70.7788C270.229 71.0295 270.312 70.8624 270.396 70.7788L270.48 70.6953C270.563 70.6117 270.647 70.5281 270.73 70.4446L270.814 70.361C270.981 70.1939 270.73 70.4446 270.814 70.361C270.897 70.2775 270.981 70.2775 271.064 70.1939C271.148 70.1939 271.148 70.1104 271.232 70.1104C271.399 70.0268 271.148 70.1104 271.232 70.1104C271.315 70.1104 271.399 70.1104 271.482 70.0268C271.315 70.0268 271.232 70.0268 271.315 70.0268H271.399C271.482 70.0268 271.482 70.0268 271.399 70.0268C271.315 70.0268 271.315 70.0268 271.399 70.0268H271.482C271.566 70.0268 271.566 70.0268 271.399 70.0268L271.566 70.1104C271.566 70.1104 271.649 70.1104 271.649 70.1939C271.566 70.1104 271.566 70.1104 271.566 70.1104C271.649 70.1939 271.649 70.1939 271.733 70.2775L271.816 70.361L271.733 70.2775L271.816 70.4446C271.816 70.5281 271.9 70.5281 271.9 70.6117C271.816 70.5281 271.816 70.5281 271.9 70.6117V70.6953C271.984 70.9459 272.067 71.2801 272.067 71.5308C272.151 71.9486 272.652 72.2828 273.07 72.1157C273.571 71.9486 273.738 71.5308 273.655 71.113C273.571 70.5281 273.404 69.9432 273.07 69.4419C272.736 68.9406 272.151 68.4392 271.566 68.3557C271.064 68.2721 270.563 68.3557 270.062 68.6899C269.644 68.9406 269.31 69.2748 269.059 69.609C268.725 70.0268 268.391 70.5281 268.307 71.113C268.224 71.5308 268.725 71.9486 269.143 71.9486C269.811 71.9486 270.145 71.6144 270.145 71.113Z" fill="#0C1B3A"/>
<path d="M229.871 77.3798C227.699 75.8757 225.192 74.7895 222.602 74.2046C220.847 73.7868 218.674 73.7868 217.505 75.1237C216.92 75.7922 216.669 76.7113 216.669 77.6304C216.586 80.9727 219.009 83.9807 222.1 85.4012C225.108 86.8217 228.618 86.8217 231.96 86.4874C231.459 83.563 230.79 80.722 229.788 77.9647" fill="#FF5F5C"/>
<path d="M221.515 80.8891C221.682 80.3878 222.016 79.97 222.601 79.8029C223.019 79.6358 223.186 79.6358 223.604 79.6358C223.854 79.6358 224.189 79.7194 224.523 79.8029C224.606 79.8029 224.606 79.8029 224.523 79.8029C224.523 79.8029 224.606 79.8029 224.606 79.8865C224.69 79.97 224.774 79.97 224.941 80.0536C225.108 80.1371 225.191 80.2207 225.359 80.3878C225.693 80.722 225.943 80.9727 226.194 81.3905C226.695 82.1425 226.946 83.0616 227.28 83.8972C227.615 84.8999 229.202 84.4821 228.868 83.4794C228.283 81.3069 227.113 78.8838 224.857 78.2153C223.019 77.6304 220.512 78.3824 220.011 80.4714C219.677 81.474 221.264 81.8918 221.515 80.8891Z" fill="#D5401F"/>
<path d="M232.294 86.9888C231.124 83.2288 229.954 80.0536 230.79 76.0429C230.957 75.2074 231.207 74.3718 231.709 73.7869C232.21 73.202 233.213 72.7842 233.965 73.202C235.803 80.3043 238.477 87.908 242.153 94.2583C242.488 94.9267 243.156 95.5952 243.825 95.4281C244.242 95.3445 244.493 94.9267 244.66 94.5925C245.913 92.2529 246.164 89.2449 248.086 87.4066C249.674 85.9026 251.93 85.4848 254.102 85.2342C259.199 84.5657 264.296 84.315 269.393 84.3986C271.398 84.3986 273.989 84.3986 275.242 86.0697C276.412 87.6573 276.245 92.42 276.495 94.4254C277.498 100.859 279.921 111.137 274.072 115.732C271.649 117.654 268.724 118.573 265.716 119.409C259.617 121.08 252.598 121.916 247.501 118.239C243.156 115.064 240.984 109.215 238.56 104.619C235.72 98.8539 234.216 92.9214 232.294 86.9888Z" fill="#FF9F1C"/>
<path d="M240.481 66.0996C238.977 67.6037 237.139 68.857 236.303 70.7788C235.467 72.7006 235.718 74.8731 235.718 76.962C235.718 79.218 235.467 81.3905 234.966 83.563C234.799 84.2314 234.632 84.8999 234.131 85.4848C233.713 85.9861 232.877 86.3204 232.292 85.9861C231.707 85.7355 231.457 85.067 231.206 84.4821C230.454 82.5603 229.702 80.7221 229.034 78.8003C228.365 77.0456 226.945 76.2936 225.357 75.6251C224.605 75.2909 220.845 74.7895 220.511 74.3717C217.503 70.1939 218.255 66.5174 218.84 61.8382C220.511 61.6711 222.015 60.8356 223.435 60.0836C230.203 56.6577 237.64 54.3181 245.16 53.3155C245.578 57.8275 243.572 62.9245 240.481 66.0996Z" fill="#FF9F1C"/>
<path d="M272.902 64.4285C271.983 64.345 267.387 64.5121 268.055 62.6738C268.39 61.6712 270.479 60.9192 271.481 60.9192C272.484 60.9192 273.57 61.0863 274.239 61.8383C274.907 62.5903 274.824 64.0943 273.821 64.345C273.487 64.5121 273.152 64.4285 272.902 64.4285Z" fill="#0C1B3A"/>
<path d="M257.107 62.4231C259.53 62.5903 259.112 60.9191 257.608 59.7493C256.522 58.8302 254.934 58.4124 253.514 58.2453C251.509 57.9946 249.503 58.496 247.832 59.4987C247.331 59.8329 246.746 60.4178 246.996 61.0027C247.164 61.504 247.832 61.6711 248.417 61.7547C251.341 61.9218 254.182 62.1725 257.107 62.4231Z" fill="#0C1B3A"/>
<path d="M211.319 162.19C213.408 154.085 215.497 145.479 213.324 137.374C209.815 149.991 204.802 162.273 198.618 173.804C197.783 175.392 196.864 176.979 195.276 177.815C191.767 179.82 187.672 177.063 183.996 175.392C178.147 172.634 171.797 172.969 166.031 175.392C165.196 177.147 164.444 178.985 163.608 180.739C163.274 181.491 162.856 182.411 163.107 183.246C163.274 183.998 163.942 184.583 164.611 185.084C170.878 190.014 179.567 193.941 187.672 193.357C186.168 206.141 183.244 218.758 178.983 230.957C178.648 231.793 178.398 232.712 178.648 233.547C178.899 234.216 179.484 234.717 180.152 235.218C188.424 241.485 197.616 246.499 207.392 250.008C207.81 250.175 209.982 245.914 212.572 240.817C206.222 233.547 199.705 225.944 199.036 216.502C198.702 211.739 199.872 207.06 201.041 202.464C204.384 189.012 207.81 175.643 211.319 162.19Z" fill="#4A8703"/>
<path d="M214.079 160.352C208.648 177.063 194.861 194.109 179.988 203.383C180.155 205.556 182.495 206.976 184.667 206.976C186.84 206.976 188.845 205.806 190.684 204.72C196.95 200.96 203.133 196.949 208.314 191.769C218.341 181.826 222.268 167.454 224.775 153.918C227.281 140.799 227.783 126.177 220.012 115.398C219.511 114.73 219.009 114.061 218.341 113.643C216.753 112.724 214.664 113.226 213.077 114.228C211.656 115.064 210.236 115.983 208.982 117.153C206.643 119.242 211.406 123.085 212.408 125.007C214.33 128.517 215.333 132.694 216.001 136.622C217.255 144.476 216.503 152.748 214.079 160.352Z" fill="#0C1B3A"/>
<path d="M220.179 169.961C219.678 169.961 219.176 169.961 218.759 169.793C217.505 169.376 216.837 168.039 216.753 166.702C216.67 165.365 217.087 164.112 217.505 162.942C222.352 147.317 220.179 129.101 210.069 116.234C209.651 116.484 209.317 116.819 208.982 117.153C206.643 119.242 211.406 123.085 212.408 125.007C214.33 128.516 215.333 132.694 216.001 136.621C217.255 144.559 216.503 152.748 214.079 160.352C208.648 177.063 194.861 194.108 179.988 203.383C180.155 205.556 182.495 206.976 184.667 206.976C186.84 206.976 188.845 205.806 190.684 204.72C196.95 200.96 203.133 196.949 208.314 191.769C214.414 185.753 218.257 178.066 220.931 169.877C220.597 169.961 220.43 169.961 220.179 169.961Z" fill="#011627"/>
<path d="M199.038 188.176C199.623 183.747 199.874 178.066 195.361 175.642C193.105 174.389 190.432 174.055 187.925 173.804C183.079 173.386 178.149 173.303 173.219 173.637C170.462 173.804 167.621 174.138 165.281 175.475C162.189 177.314 160.351 180.823 159.933 184.416C159.516 188.009 160.351 191.602 161.688 194.944C163.192 198.537 165.281 202.046 168.54 204.219C171.882 206.391 176.06 206.893 179.987 206.224C183.914 205.556 187.507 203.717 190.849 201.545C193.44 199.79 195.946 197.701 197.367 194.86C198.37 192.855 198.704 190.432 199.038 188.176Z" fill="#87ED03"/>
<path d="M269.393 80.8056C270.062 81.0563 270.814 81.2234 271.231 81.8083C271.649 82.3932 271.566 83.2287 271.148 83.8136C269.727 86.1532 266.636 85.9861 264.463 85.1506C263.544 84.7328 262.625 84.315 261.873 83.563C259.283 80.8892 261.706 73.6197 262.291 70.361C262.458 69.6926 262.625 68.9406 263.043 68.4392C263.461 67.8543 264.213 67.5201 264.881 67.7708C265.55 68.0214 265.8 68.7734 265.884 69.4419C266.385 72.2828 265.633 78.8002 268.558 80.4714C268.808 80.5549 269.059 80.7221 269.393 80.8056Z" fill="#FF5F5C"/>
<path d="M231.208 351.864C231.208 358.715 230.957 365.985 231.709 372.753C231.709 372.92 231.96 372.92 232.044 372.836C232.127 372.753 232.211 372.502 232.211 372.335C232.963 367.572 233.464 362.642 233.882 357.796C234.049 356.041 234.133 354.203 234.216 352.448C234.216 352.365 234.216 352.281 234.216 352.198C234.216 352.114 234.133 352.114 234.049 352.114C233.13 352.031 232.127 351.864 231.208 351.864Z" fill="#B5BFAF"/>
<path d="M239.813 196.782C239.479 207.561 237.725 261.372 237.39 272.15C236.638 299.223 235.886 326.295 235.051 353.451L230.455 353.033C230.706 315.015 232.878 234.049 234.132 196.03L239.813 196.782Z" fill="#DAE2D5"/>
<path d="M233.126 149.239C232.959 149.573 232.792 149.907 232.709 150.325C232.458 151.745 232.792 153.834 232.625 155.422C232.458 157.344 232.709 159.349 232.541 161.354C232.04 166.702 231.622 172.133 231.455 177.481C231.205 184.165 233.878 192.02 229.701 197.952C229.45 198.286 229.199 198.704 229.199 199.122C229.199 199.707 229.784 200.125 230.285 200.375C234.296 202.297 239.142 201.462 243.32 199.79C243.738 199.623 244.239 199.373 244.49 198.955C244.991 198.203 244.407 197.2 243.738 196.532C241.482 194.276 242.067 190.432 242.318 187.424C242.735 181.074 243.153 174.64 243.571 168.289C243.905 162.775 243.487 156.174 245.493 150.91C245.66 150.492 245.827 150.158 245.743 149.74C245.66 149.239 245.326 148.821 244.908 148.487C242.234 146.063 234.965 145.896 233.126 149.239Z" fill="#E71D36"/>
<path d="M243.319 199.791C243.737 199.624 244.238 199.373 244.489 198.956C244.99 198.204 244.406 197.201 243.737 196.532C243.654 196.449 243.654 196.365 243.57 196.282C241.398 195.613 239.225 194.778 237.805 193.023C236.301 191.018 236.217 188.26 236.217 185.754C236.301 174.139 236.384 162.608 236.384 150.994C236.384 149.657 236.551 148.153 236.969 146.9C235.298 147.234 233.794 147.986 233.125 149.239C232.958 149.574 232.791 149.908 232.708 150.326C232.457 151.746 232.791 153.835 232.624 155.423C232.457 157.344 232.708 159.35 232.541 161.355C232.039 166.703 231.621 172.134 231.454 177.482C231.204 184.166 233.877 192.02 229.7 197.953C229.449 198.287 229.198 198.705 229.198 199.123C229.198 199.708 229.783 200.125 230.284 200.376C234.295 202.298 239.142 201.462 243.319 199.791Z" fill="#AA0723"/>
<path d="M257.613 91.1667C258.448 94.2583 261.289 96.5979 264.464 96.6814C267.639 96.765 270.648 94.4254 271.567 91.4173C271.901 90.4147 270.23 89.9133 269.979 90.9996C269.311 93.3391 266.971 95.0938 264.548 95.0103C262.125 94.9267 259.869 93.0885 259.284 90.7489C258.95 89.6626 257.362 90.164 257.613 91.1667Z" fill="#D5401F"/>
<path d="M227.447 188.844C227.363 188.844 227.363 188.844 227.28 188.844C227.112 188.844 227.029 188.928 226.862 188.928C220.01 191.685 213.576 195.195 206.307 197.367C199.204 199.456 191.768 200.793 184.415 201.211C179.569 201.461 174.472 201.378 170.043 199.289C165.615 197.2 162.105 192.604 162.523 187.758C162.941 182.828 167.286 178.985 171.965 177.481C176.644 175.893 181.658 176.144 186.587 176.144C199.372 176.144 212.156 174.306 224.439 170.796H224.522C225.191 167.872 225.191 165.114 227.112 162.608C228.784 160.435 231.541 159.349 234.048 158.513C235.802 157.928 237.641 157.511 239.395 157.093C241.233 156.675 243.155 156.341 245.077 156.675C246.915 157.009 248.754 158.096 249.506 159.85C250.09 161.271 250.174 162.775 249.923 164.195C251.427 164.529 252.681 165.616 253.767 166.785C255.355 168.54 255.605 170.796 254.268 172.802C254.101 173.136 253.767 173.386 253.516 173.637C253.015 174.138 252.43 174.64 251.929 175.141C252.096 174.974 253.099 177.648 253.182 177.899C253.516 179.068 253.851 180.155 253.6 181.324C253.266 183.079 251.344 184.332 249.756 184.75C250.007 187.675 249.171 189.931 246.247 191.1C243.573 192.187 239.813 192.02 236.972 191.685C233.713 191.268 230.538 190.181 227.447 189.012C227.53 188.844 227.447 188.844 227.447 188.844Z" fill="#FF8C60"/>
<path d="M237.474 182.745C236.555 181.909 236.305 180.489 236.722 179.319C237.14 178.149 237.976 177.146 238.895 176.394C239.146 176.144 239.48 175.809 239.396 175.475C239.313 175.225 239.146 175.057 238.978 174.974C237.892 174.305 236.555 173.971 235.803 172.969C234.801 171.632 235.218 169.71 235.72 168.122C235.97 167.537 236.138 166.869 235.803 166.368C235.218 165.532 233.798 166.117 232.795 165.783C231.542 165.448 231.291 163.861 231.375 162.524C231.458 161.271 231.876 160.101 232.377 159.015C230.372 159.767 228.367 160.853 227.03 162.524C225.442 164.613 225.108 166.952 224.69 169.376C224.607 169.793 224.523 170.211 224.44 170.713H224.356C223.604 170.88 222.852 171.13 222.1 171.297C221.097 177.23 217.755 182.661 213.494 186.923C208.313 192.103 201.712 195.612 195.111 198.62C193.858 199.205 192.521 199.79 191.268 200.375C196.365 199.707 201.378 198.62 206.224 197.2C213.41 195.028 219.844 191.518 226.779 188.761C226.946 188.677 227.03 188.677 227.197 188.677C227.281 188.677 227.281 188.677 227.364 188.677C227.448 188.677 227.531 188.761 227.531 188.761C227.615 188.761 227.615 188.761 227.698 188.844C228.2 189.011 228.701 189.262 229.286 189.429C229.369 189.429 229.453 189.513 229.537 189.513C231.96 190.348 234.466 191.1 237.057 191.435C237.14 191.435 237.307 191.435 237.391 191.435C237.224 190.766 237.14 190.014 237.307 189.262C237.558 187.925 238.226 186.672 238.978 185.502C239.146 185.251 239.313 185.001 239.313 184.75C239.48 183.831 238.226 183.413 237.474 182.745Z" fill="#FF5F5C"/>
<path d="M247.583 117.988C252.68 121.748 259.699 120.829 265.798 119.158C268.723 118.323 271.731 117.403 274.154 115.482C274.405 115.315 274.572 115.147 274.823 114.897C269.141 114.395 263.459 113.393 258.028 111.972C254.685 111.053 251.343 109.967 248.502 107.962C245.578 105.956 243.405 103.032 241.567 100.024C237.974 94.1747 235.384 87.7408 234.13 80.9727C233.796 79.0509 233.462 77.0455 232.71 75.2073C232.042 73.7033 231.122 72.2828 230.287 70.8623C228.532 67.5201 227.864 63.5929 228.449 59.8328L227.195 59.5822C227.195 59.1644 227.112 58.8302 227.028 58.4959C225.858 58.9973 224.772 59.4986 223.602 60.0835C222.098 60.8355 220.594 61.6711 219.007 61.8382C218.422 66.4338 217.67 70.1939 220.678 74.3717C221.012 74.7895 224.772 75.2073 225.524 75.6251C227.195 76.3771 228.532 77.1291 229.201 78.8002C229.953 80.722 230.705 82.5603 231.373 84.4821C231.54 84.9834 231.791 85.4012 232.125 85.7354C232.292 86.1532 232.376 86.571 232.543 86.9052C234.465 92.8377 235.969 98.7703 238.81 104.285C240.982 108.964 243.238 114.897 247.583 117.988Z" fill="#ED860A"/>
<path d="M244.326 56.407C249.34 54.8195 254.604 53.7332 259.951 53.7332C262.291 53.7332 264.714 54.0674 266.886 54.903C268.474 55.4879 269.644 56.407 270.646 57.8275C271.231 57.4097 271.9 56.9919 272.151 56.2399C272.401 55.655 272.318 54.9866 272.234 54.4017C271.9 52.1456 271.9 50.2238 270.312 48.5527C268.641 46.798 267.304 45.1269 265.884 42.9544C263.126 38.7766 258.781 35.7685 254.102 33.9303C249.423 32.092 244.41 31.34 239.396 30.8387C232.628 30.2538 224.273 29.3347 219.092 34.5152C218.424 35.1836 217.755 35.9356 217.421 36.8548C216.168 40.197 218.674 42.7037 218.674 45.8789C218.758 49.5554 214.914 52.7305 215.75 56.3235C216 57.4097 216.669 58.4124 216.251 59.4986C216.084 59.9164 215.833 60.1671 215.583 60.5013C214.246 62.5067 216.168 67.4365 218.173 68.6063C218.424 67.0187 220.011 66.016 221.432 65.264C224.523 63.6765 227.698 62.5902 230.873 61.4204C235.469 59.6657 239.814 57.8275 244.326 56.407Z" fill="#0C1B3A"/>
<path d="M287.859 390.55C288.361 393.141 289.196 395.814 290.951 397.82C291.87 398.822 292.956 399.491 294.293 399.825C295.714 400.243 297.218 400.076 298.722 399.825C301.98 399.24 305.239 397.82 308.247 396.316C311.757 394.645 315.182 392.723 318.775 391.302C322.786 389.715 327.131 388.712 331.476 389.213C331.977 389.297 331.977 388.461 331.476 388.378C323.956 387.459 317.021 390.968 310.587 394.31C307.495 395.898 304.404 397.402 301.061 398.405C298.304 399.24 295.045 399.909 292.539 398.07C290.199 396.316 289.28 393.141 288.779 390.383C288.611 389.798 287.776 390.049 287.859 390.55Z" fill="#FDFFFC"/>
<path d="M275.993 408.014C278.082 406.175 281.09 407.095 282.845 408.933C284.85 411.105 285.435 414.197 286.02 416.954C286.104 417.456 286.939 417.288 286.856 416.704C286.271 413.528 285.519 410.103 283.012 407.847C280.923 406.008 277.664 405.423 275.408 407.345C274.991 407.763 275.575 408.348 275.993 408.014Z" fill="#FDFFFC"/>
<path d="M168.04 394.895C168.458 396.065 169.043 397.151 169.377 398.405C169.711 399.658 169.628 401.078 169.293 402.332C168.625 404.838 167.121 406.927 165.617 409.016C165.283 409.434 166.035 409.852 166.369 409.434C167.957 407.262 169.544 405.006 170.129 402.332C170.463 401.078 170.463 399.742 170.213 398.488C169.962 397.151 169.21 395.981 168.792 394.645C168.709 394.143 167.873 394.394 168.04 394.895Z" fill="#FDFFFC"/>
<path d="M272.148 56.2399C272.399 55.655 272.316 54.9866 272.232 54.4017C271.981 52.8977 271.898 51.4772 271.396 50.2239C255.27 45.8789 237.556 47.9678 222.934 56.0728C222.599 56.2399 222.265 56.4071 221.931 56.4071C221.179 56.4071 220.594 55.7386 220.51 54.9866C220.427 54.2346 220.761 53.4826 221.179 52.8977C224.605 47.1323 231.958 45.1269 236.804 40.4477C233.127 41.1162 229.451 41.7011 225.858 42.3695C225.022 42.5366 224.103 42.7038 223.268 42.3695C222.516 42.1189 222.014 41.4504 221.513 40.8655C220.176 39.2779 218.839 37.6068 218.171 35.7686C217.92 36.1028 217.753 36.437 217.586 36.8548C216.333 40.1971 218.839 42.7038 218.839 45.8789C218.923 49.5554 215.079 52.7306 215.915 56.3235C216.165 57.4097 216.834 58.4124 216.416 59.4987C216.249 59.9164 215.998 60.1671 215.748 60.5013C214.411 62.5067 216.333 67.4365 218.338 68.6063C218.589 67.0188 220.176 66.0161 221.68 65.2641C224.772 63.6765 227.947 62.5903 231.122 61.4205C235.551 59.7493 239.979 57.9111 244.491 56.4906C249.505 54.903 254.769 53.8168 260.116 53.8168C262.456 53.8168 264.879 54.151 267.051 54.9866C268.639 55.5715 269.809 56.4906 270.812 57.9111C271.229 57.4097 271.898 56.9084 272.148 56.2399Z" fill="#011627"/>
<path d="M216.837 59.8329C223.521 56.4906 230.373 53.2319 237.559 51.0594C244.578 48.8869 251.931 47.7172 259.284 48.3021C263.378 48.6363 267.389 49.5554 271.149 51.0594C271.65 51.2265 271.901 50.4745 271.399 50.2239C264.548 47.4665 257.028 46.798 249.758 47.55C242.238 48.3856 234.969 50.6416 228.117 53.5661C224.19 55.2373 220.263 57.0755 216.503 58.9973C216.001 59.4151 216.419 60.0835 216.837 59.8329Z" fill="#18376D"/>
<path d="M217.673 36.3534C216.336 39.1943 218.592 41.7846 220.263 43.8735C221.183 45.0433 222.185 46.3802 222.185 47.9678C222.185 49.6389 221.433 51.1429 221.099 52.7305C220.848 54.2345 220.932 55.7385 222.018 56.9083C222.352 57.3261 222.937 56.7412 222.603 56.3234C221.35 54.9865 221.851 52.9812 222.269 51.4772C222.77 49.6389 223.355 47.8007 222.519 45.9624C221.851 44.3748 220.598 43.1215 219.595 41.7846C218.509 40.4477 217.506 38.4423 218.258 36.7712C218.676 36.2698 217.924 35.852 217.673 36.3534Z" fill="#18376D"/>
<path d="M220.263 33.5961C219.762 36.9384 222.77 38.9437 224.943 40.8655C226.029 41.8682 227.115 43.038 227.449 44.542C227.616 45.4612 227.533 46.3803 227.616 47.2994C227.7 47.9679 227.867 48.7199 228.118 49.3883C228.703 50.8923 229.705 52.2293 231.126 53.1484C231.627 53.399 232.045 52.7306 231.544 52.3964C230.29 51.6444 229.455 50.4746 228.953 49.1377C228.703 48.5528 228.536 47.8843 228.452 47.2159C228.368 46.3803 228.368 45.5447 228.285 44.7092C227.867 41.7011 225.193 40.1971 223.188 38.2753C222.018 37.1055 220.765 35.6015 221.015 33.8468C221.183 33.2619 220.347 33.0112 220.263 33.5961Z" fill="#18376D"/>
<path d="M224.522 31.5907C226.026 34.4316 227.614 37.3561 230.371 39.1944C231.875 40.1971 233.463 40.782 234.883 41.8682C236.136 42.7873 237.306 43.9571 238.225 45.2105C239.312 46.6309 240.147 48.3021 240.816 49.9732C240.983 50.4745 241.818 50.2239 241.651 49.7225C240.565 46.7145 238.81 44.0407 236.387 41.9518C235.134 40.8655 233.713 40.0299 232.293 39.2779C230.705 38.4424 229.368 37.4397 228.199 36.0192C227.029 34.5152 226.11 32.8441 225.191 31.1729C224.94 30.6716 224.271 31.0894 224.522 31.5907Z" fill="#18376D"/>
<path d="M230.62 30.588C231.622 33.8467 234.797 35.7685 237.638 37.2725C239.226 38.1081 240.814 38.7766 242.318 39.6957C243.738 40.5312 245.075 41.6175 246.245 42.8708C247.582 44.2913 248.668 45.8789 249.503 47.6336C249.754 48.1349 250.423 47.7171 250.255 47.2158C248.835 44.2913 246.746 41.701 244.072 39.7792C241.315 37.7739 237.973 36.6876 235.132 34.7658C233.544 33.6796 232.04 32.2591 231.455 30.3373C231.288 29.836 230.453 30.0867 230.62 30.588Z" fill="#18376D"/>
<path d="M236.387 31.1729C237.39 32.844 238.727 34.3481 240.231 35.5178C241.902 36.7712 243.824 37.6068 245.829 38.1081C247.751 38.6094 249.589 39.1943 251.344 40.1135C252.848 40.8655 254.268 41.8682 255.438 43.1215C256.859 44.542 257.861 46.2967 258.697 48.1349C258.947 48.6362 259.616 48.2185 259.449 47.7171C258.112 44.542 255.856 41.7846 252.848 39.9464C251.344 39.0272 249.673 38.3588 248.002 37.8574C245.913 37.189 243.74 36.7712 241.902 35.6014C239.98 34.4316 238.309 32.7605 237.223 30.8387C236.888 30.3373 236.136 30.7551 236.387 31.1729Z" fill="#18376D"/>
<path d="M245.58 31.8414C247 35.2672 250.342 37.1054 253.685 38.2752C257.528 39.6957 261.623 40.6148 264.296 43.79C265.8 45.5447 266.803 47.7171 267.639 49.806C267.806 50.3074 268.641 50.0567 268.474 49.5554C266.97 45.8789 265.048 42.3695 261.456 40.3641C258.03 38.4423 254.019 37.8574 250.593 35.9356C248.838 34.933 247.167 33.5125 246.332 31.5907C246.165 31.0893 245.413 31.34 245.58 31.8414Z" fill="#18376D"/>
<path d="M217.923 58.5795C217.255 59.8329 217.088 61.3369 217.422 62.6738C217.84 64.0107 218.759 65.1805 219.594 66.2667C219.929 66.6845 220.514 66.0996 220.179 65.6818C219.427 64.7627 218.592 63.76 218.258 62.5902C217.84 61.4205 218.007 60.0835 218.592 58.9973C218.926 58.496 218.174 58.0782 217.923 58.5795Z" fill="#18376D"/>
<path d="M221.348 56.7412C221.014 59.4986 222.685 61.8382 224.272 63.9271C224.606 64.3449 225.358 63.9271 225.024 63.5093C223.52 61.5875 221.933 59.3315 222.183 56.7412C222.183 56.2399 221.348 56.2399 221.348 56.7412Z" fill="#18376D"/>
<path d="M225.779 54.903C226.28 56.1564 226.782 57.4933 227.366 58.7466C227.617 59.3315 227.951 60 228.202 60.5849C228.453 61.1698 228.787 61.7547 229.205 62.1725C229.539 62.5902 230.207 62.0053 229.79 61.5876C229.372 61.1698 229.121 60.5849 228.87 60.0835C228.62 59.4986 228.286 58.9137 228.035 58.2453C227.534 57.0755 227.032 55.8221 226.531 54.6524C226.447 54.151 225.612 54.3181 225.779 54.903Z" fill="#18376D"/>
<path d="M232.296 52.1456C232.546 53.399 233.382 54.4852 233.967 55.5715C234.635 56.7413 235.387 57.9111 236.056 59.1644C236.306 59.6657 237.058 59.248 236.808 58.7466C236.139 57.5768 235.471 56.407 234.802 55.3208C234.217 54.2346 233.382 53.1483 233.131 51.9785C232.964 51.3936 232.212 51.6443 232.296 52.1456Z" fill="#18376D"/>
<path d="M238.979 50.2238C240.149 52.3963 241.235 54.5688 242.238 56.7413C242.489 57.2426 243.157 56.8248 242.99 56.3235C241.987 54.0675 240.901 51.895 239.731 49.8061C239.48 49.3047 238.728 49.7225 238.979 50.2238Z" fill="#18376D"/>
<path d="M244.576 49.0541C245.579 51.143 246.582 53.3155 247.584 55.4044C247.835 55.9057 248.503 55.4879 248.336 54.9866C247.334 52.8977 246.331 50.7252 245.328 48.6363C245.078 48.1349 244.409 48.5527 244.576 49.0541Z" fill="#18376D"/>
<path d="M251.178 48.1349C252.014 49.9732 252.515 51.9785 252.598 53.9839C252.598 54.4853 253.434 54.4853 253.434 53.9839C253.35 51.8114 252.766 49.7225 251.846 47.7172C251.679 47.2158 251.011 47.6336 251.178 48.1349Z" fill="#18376D"/>
<path d="M258.613 48.2185C259.031 50.0567 259.365 51.9785 259.449 53.8168C259.449 54.3181 260.284 54.3181 260.284 53.8168C260.117 51.8114 259.867 49.8896 259.365 47.9678C259.365 47.55 258.53 47.7171 258.613 48.2185Z" fill="#18376D"/>
<path d="M264.794 48.8869C265.212 50.7251 265.295 52.5634 265.212 54.4016C265.212 54.903 266.047 54.903 266.047 54.4016C266.214 52.4798 266.047 50.558 265.63 48.6362C265.546 48.1349 264.71 48.3855 264.794 48.8869Z" fill="#18376D"/>
<path d="M270.312 50.5581C270.395 51.8115 270.479 53.0648 270.479 54.3182C270.479 54.736 270.395 55.2373 270.145 55.6551C269.81 56.0729 269.393 56.24 269.393 56.8249C269.393 57.3262 270.228 57.3262 270.228 56.8249C270.228 56.6578 270.479 56.4906 270.646 56.3235C270.813 56.1564 270.98 55.9893 271.064 55.7386C271.314 55.3209 271.314 54.8195 271.314 54.3182C271.314 53.0648 271.231 51.8115 271.147 50.5581C271.064 49.9732 270.228 49.9732 270.312 50.5581Z" fill="#18376D"/>
</svg>
