<svg width="99" height="92" viewBox="0 0 99 92" fill="none" xmlns="http://www.w3.org/2000/svg">
<path d="M26.1594 74.52C30.958 74.52 34.8481 70.7099 34.8481 66.01C34.8481 61.3101 30.958 57.5 26.1594 57.5C21.3608 57.5 17.4707 61.3101 17.4707 66.01C17.4707 70.7099 21.3608 74.52 26.1594 74.52Z" fill="#5FBE00"/>
<path d="M78.5303 74.5775C83.3064 74.5775 87.1782 70.7546 87.1782 66.0387C87.1782 61.3229 83.3064 57.5 78.5303 57.5C73.7541 57.5 69.8823 61.3229 69.8823 66.0387C69.8823 70.7546 73.7541 74.5775 78.5303 74.5775Z" fill="#5FBE00"/>
<path fill-rule="evenodd" clip-rule="evenodd" d="M87.8074 17.3882H41.7433C29.4906 17.3882 23.4748 20.2632 23.4748 34.5865C23.4748 34.5865 18.3036 40.2962 14.2387 40.2962C10.1739 40.2962 5.82373 42.8435 5.82373 45.96V63.9632C5.82373 66.3092 7.09908 68.1493 11.1697 68.6725C10.9886 67.7535 10.8931 66.82 10.8844 65.8838C10.8844 57.6153 17.7678 50.905 26.241 50.905C34.7143 50.905 41.5977 57.6153 41.5977 65.8838C41.5977 66.8958 41.487 67.8733 41.289 68.8278L63.5465 68.8393C63.3702 67.9351 63.2767 67.0172 63.267 66.0965C63.2686 62.0674 64.8899 58.2037 67.7748 55.3541C70.6596 52.5046 74.5722 50.9023 78.6528 50.8993C82.7329 50.9023 86.6448 52.5048 89.5287 55.3545C92.4127 58.2042 94.0327 62.0679 94.0327 66.0965C94.0237 67.0194 93.9282 67.9395 93.7474 68.845H98.9128V34.552C98.907 23.8397 95.0052 17.3882 87.8074 17.3882ZM46.6816 34.6785H28.6403C28.6403 21.8962 34.1552 22.891 36.1701 22.891L46.7224 22.8105L46.6816 34.6785ZM75.9565 34.621H52.2314V22.8737H75.9565V34.621ZM81.3782 34.621V22.8737H89.735C93.7648 22.8737 93.6367 34.621 93.6367 34.621H81.3782Z" fill="#5FBE00"/>
</svg>
