<svg width="16" height="12" viewBox="0 0 16 12" fill="none" xmlns="http://www.w3.org/2000/svg">
<path d="M14.8571 0C15.1488 0 15.4122 0.102865 15.6473 0.308594C15.8824 0.514323 16 0.744792 16 1V5C16 5.27083 15.8869 5.50521 15.6607 5.70312C15.4345 5.90104 15.1667 6 14.8571 6H13.7143V9L10.25 6H6.85714C6.55952 6 6.29464 5.89844 6.0625 5.69531C5.83036 5.49219 5.71429 5.26042 5.71429 5V1C5.71429 0.739583 5.83036 0.507812 6.0625 0.304688C6.29464 0.101562 6.55952 0 6.85714 0H14.8571ZM4.57143 5C4.57738 5.50521 4.81548 5.96354 5.28571 6.375C5.7381 6.77083 6.26191 6.97917 6.85714 7H10.2857V8C10.2857 8.25521 10.1741 8.48568 9.95089 8.69141C9.72768 8.89714 9.47024 9 9.17857 9H5.75L2.28571 12V9H1.14286C0.845238 9 0.580357 8.89844 0.348214 8.69531C0.116071 8.49219 0 8.26042 0 8V4C0 3.73958 0.116071 3.50781 0.348214 3.30469C0.580357 3.10156 0.845238 3 1.14286 3H4.57143V5Z" fill="#4A4A4A"/>
</svg>
