<svg id="Layer_1" data-name="Layer 1" xmlns="http://www.w3.org/2000/svg" viewBox="0 0 84.76 84.76"><defs><style>.cls-1{fill:#5fbe00;}.cls-2{fill:#fff;}</style></defs><rect class="cls-1" x="7.24" y="9.81" width="68.64" height="68.64" rx="14.9"/><path class="cls-2" d="M49.62,47.9a12.27,12.27,0,0,1-7,3.14A12.43,12.43,0,1,1,52,44.94h0l4.66,3.79a25.27,25.27,0,0,0,2.53-10.36,17.66,17.66,0,1,0-35.32,0c0,13.94,16,28.32,16.68,28.93a1.48,1.48,0,0,0,2,0A68.48,68.48,0,0,0,54.9,52.19Z"/><path class="cls-2" d="M40.44,30.17a8.59,8.59,0,1,0,1.78,17.08h0a8.59,8.59,0,0,0-1.78-17.08Z"/></svg>