<svg width="80" height="80" viewBox="0 0 80 80" fill="none" xmlns="http://www.w3.org/2000/svg">
<path d="M74.4939 44.8488C79.2826 35.7263 69.5489 29.4 56.8226 26.2975C57.7801 24.1213 58.0576 21.2725 55.3576 18.5525C51.8951 15.0712 54.1964 10 54.1964 10C54.1964 10 46.9289 16.7038 51.5176 21.3263C53.2101 23.03 54.0914 24.5262 54.5126 25.7775C50.9994 25.0533 47.442 24.5631 43.8639 24.31C44.9326 21.405 45.0364 17.7563 41.6689 14.2625C37.0589 9.47375 40.1289 2.5 40.1289 2.5C40.1289 2.5 30.4376 11.7175 36.5564 18.0725C38.7901 20.39 39.9664 22.43 40.5364 24.14C36.7439 24.0263 33.0939 24.1925 29.8514 24.6462C30.2376 22.7775 29.9151 20.6287 27.8539 18.5538C24.3914 15.0725 26.6939 10 26.6939 10C26.6939 10 19.4251 16.7038 24.0151 21.3263C25.4526 22.7738 26.2951 24.0662 26.7789 25.1925C26.2314 25.3125 25.7001 25.4425 25.1889 25.5837C9.38635 24.105 2.49386 27.37 5.64261 33.775C0.147606 39.27 2.21261 45.5412 9.08886 50.34C12.6764 65.1162 13.6001 77.5 40.6201 77.5C64.7301 77.5 68.0614 67.6375 71.0476 55.015C80.0076 53.2313 78.0989 48.9363 74.4939 44.8488ZM72.2601 43.3725C69.2589 49.7725 56.2339 54.59 40.6201 54.59C25.0076 54.59 11.9826 49.7725 8.98011 43.3725C8.91636 43.1825 8.85511 42.985 8.79386 42.7925C10.2239 39.165 14.8714 36.0175 21.3989 33.91C19.8651 35.3925 19.5464 37.6063 23.5826 38.3825C24.7376 38.605 27.9089 37.835 26.5226 33.9C26.3289 33.35 26.0126 32.9813 25.6239 32.7588C30.1089 31.7325 35.2001 31.1413 40.6201 31.1413C41.2276 31.1413 41.8239 31.1625 42.4226 31.1763C39.2951 32.2862 36.7439 35.7062 43.1301 36.715C44.5401 36.9375 48.4114 36.1675 46.7189 32.2325C46.571 31.8818 46.334 31.5758 46.0314 31.345C52.0151 31.785 57.4364 32.9375 61.8189 34.5988C57.9651 34.3838 53.6901 36.7588 60.5364 40.1025C62.0051 40.82 66.4676 41.4788 65.8539 37.1338C65.8095 36.8198 65.6987 36.519 65.5289 36.2513C69.0326 38.0975 71.4764 40.3363 72.4451 42.7925L72.2601 43.3725Z" fill="#5FBE00"/>
<path d="M32.2963 46.0512C36.3376 46.0512 39.0326 42.3975 41.1438 40.9675C44.0938 38.9675 51.5113 38.1875 44.9788 38.03C38.7826 37.8812 31.1326 42.9112 26.0201 42.565C17.5551 41.99 26.2251 46.0512 32.2963 46.0512Z" fill="#5FBE00"/>
<path d="M41.0285 53.5162C42.456 53.7912 46.3798 52.8387 44.6635 47.9725C42.7248 42.4662 30.9885 51.5837 41.0285 53.5162Z" fill="#5FBE00"/>
<path d="M18.8088 41.4725C17.445 39.5475 15.4675 37.1062 14.6488 38.3775C13.53 40.1162 13.1775 43.615 13.99 43.77C20.36 44.9912 19.9138 43.0312 18.8088 41.4725Z" fill="#5FBE00"/>
<path d="M55.8401 42.2525C56.9888 40.83 54.6951 37.4062 53.2226 38.005C50.9176 38.9425 49.5888 38.3075 48.5763 39.73C46.2051 43.0612 54.2788 44.1837 55.8401 42.2525Z" fill="#5FBE00"/>
<path d="M55.1223 46.3288C53.4698 45.6 53.8598 48.0413 51.4185 46.0825C49.671 44.68 45.911 48.2175 48.391 50.62C51.151 53.2938 51.886 50.7525 53.046 50.9663C55.4035 51.4 59.4573 48.2413 55.1223 46.3288Z" fill="#5FBE00"/>
<path d="M27.645 47.1637C26.7837 46.3162 25.6287 47.3387 24.9762 48.5862C24.33 48.2687 23.8037 48.195 23.8037 48.195C23.31 46.7875 21.8412 45.8225 21.8412 45.8225C21.8412 45.8225 21.975 47.2862 22.1687 48C20.5462 47.4237 20.4962 44.5237 20.4962 44.5237C20.4962 44.5237 19.4075 45.175 19.5062 46.2812C17.72 44.84 16.1987 45.5137 16.1987 45.5137C16.1987 45.5137 18.465 46.7887 18.7775 47.6487C17.505 47.7475 16.7625 48.1875 16.33 49.2112C16.3312 49.22 18.845 48.015 20.705 48.885C19.9712 49.485 20.3362 50.9837 20.3362 50.9837C22.0675 49.1487 23.45 49.345 24.5562 49.6737C24.4225 50.235 24.4312 50.7475 24.6687 51.0587C26.5875 53.5812 33.2712 53.0137 35.0662 51.1487C37.24 48.8925 31.2 50.6625 27.645 47.1637Z" fill="#5FBE00"/>
<path d="M32.3665 37.6625C31.7977 38.805 31.794 39.6675 32.4515 40.565C32.4602 40.5675 32.7165 37.7925 34.4177 36.6425C34.5565 37.58 36.029 38.035 36.029 38.035C34.8515 33.865 38.289 33.6475 38.2727 32.1512C36.4502 32.305 35.4152 33.63 35.4152 33.63C33.954 33.3312 32.3702 34.095 32.3702 34.095C32.3702 34.095 33.6965 34.7312 34.4077 34.9325C33.0802 36.0287 30.5652 34.5825 30.5652 34.5825C30.5652 34.5825 30.5652 35.8525 31.5652 36.3337C29.4115 37.1275 29.209 38.7775 29.209 38.7775C29.209 38.7775 31.4665 37.4887 32.3665 37.6625Z" fill="#5FBE00"/>
<path d="M64.3052 43.3575C64.8227 42.375 64.0677 41.3538 64.0677 41.3538C64.0677 41.3538 62.9065 44.0125 61.1877 43.9213C61.6402 43.3363 62.3277 42.0363 62.3277 42.0363C62.3277 42.0363 60.6002 42.365 59.6027 43.4738C59.6027 43.4738 57.9827 43.025 56.4277 43.985C57.3052 45.1975 60.1977 43.3263 61.7315 47.3788C61.7315 47.3788 62.644 46.1375 62.1977 45.3013C64.2502 45.2125 66.1077 47.29 66.114 47.2825C66.1065 46.17 65.5915 45.48 64.4527 44.9C65.0727 44.2263 67.6552 43.92 67.6552 43.92C67.6552 43.92 66.5102 42.7138 64.3052 43.3575Z" fill="#5FBE00"/>
</svg>
