<svg width="17" height="16" viewBox="0 0 17 16" fill="none" xmlns="http://www.w3.org/2000/svg">
<path d="M15.1218 6.10214C15.7303 6.10214 16.2273 5.6095 16.2273 5.00626C16.2273 4.40301 15.7303 3.9097 15.1218 3.9097C14.5133 3.9097 14.0156 4.40234 14.0156 5.00626C14.0156 5.61017 14.5045 6.10214 15.1218 6.10214ZM11.804 9.75644C12.3906 9.75644 12.9531 9.52545 13.3679 9.11429C13.7826 8.70312 14.0156 8.14547 14.0156 7.56399C14.0156 6.98252 13.7826 6.42487 13.3679 6.0137C12.9531 5.60254 12.3906 5.37155 11.804 5.37155C11.2174 5.37155 10.6549 5.60254 10.2401 6.0137C9.82536 6.42487 9.59235 6.98252 9.59235 7.56399C9.59235 8.14547 9.82536 8.70312 10.2401 9.11429C10.6549 9.52545 11.2174 9.75644 11.804 9.75644ZM11.804 15.6025C13.2273 15.6025 14.3841 14.4557 14.3841 13.0361C14.3841 11.6164 13.2273 10.4783 11.7952 10.4783C11.1111 10.479 10.4553 10.7487 9.97156 11.2282C9.48785 11.7078 9.21578 12.3579 9.21506 13.0361C9.21462 13.3732 9.28128 13.7072 9.41121 14.0188C9.54115 14.3304 9.73183 14.6136 9.97231 14.852C10.2128 15.0905 10.4984 15.2796 10.8127 15.4085C11.127 15.5374 11.4639 15.6035 11.804 15.6032V15.6025ZM4.42329 9.75577C5.59641 9.75577 6.72149 9.29379 7.55102 8.47146C8.38055 7.64914 8.84657 6.53382 8.84657 5.37088C8.84657 4.20794 8.38055 3.09262 7.55102 2.2703C6.72149 1.44797 5.59641 0.985992 4.42329 0.985992C3.25016 0.985992 2.12508 1.44797 1.29555 2.2703C0.466023 3.09262 0 4.20794 0 5.37088C0 6.53382 0.466023 7.64914 1.29555 8.47146C2.12508 9.29379 3.25016 9.75577 4.42329 9.75577Z" fill="white"/>
</svg>
