<svg width="70" height="62" viewBox="0 0 70 62" fill="none" xmlns="http://www.w3.org/2000/svg">
<path d="M68.0556 7.75C69.1299 7.75 70 6.88297 70 5.8125V1.9375C70 0.867031 69.1299 0 68.0556 0H1.94444C0.870139 0 0 0.867031 0 1.9375V5.8125C0 6.88297 0.870139 7.75 1.94444 7.75H3.88646V54.25H1.94444C0.870139 54.25 0 55.117 0 56.1875V60.0625C0 61.133 0.870139 62 1.94444 62H31.1111V52.3125C31.1111 51.2469 31.9861 50.375 33.0556 50.375H36.9444C38.0139 50.375 38.8889 51.2469 38.8889 52.3125V62H68.0556C69.1299 62 70 61.133 70 60.0625V56.1875C70 55.117 69.1299 54.25 68.0556 54.25H66.1111V7.75H68.0556ZM31.1111 13.175C31.1111 12.4 31.8889 11.625 32.6667 11.625H37.3333C38.1111 11.625 38.8889 12.4 38.8889 13.175V17.825C38.8889 18.6 38.1111 19.375 37.3333 19.375H32.6667C31.8889 19.375 31.1111 18.6 31.1111 17.825V13.175ZM31.1111 24.8C31.1111 24.025 31.8889 23.25 32.6667 23.25H37.3333C38.1111 23.25 38.8889 24.025 38.8889 24.8V29.45C38.8889 30.225 38.1111 31 37.3333 31H32.6667C31.8889 31 31.1111 30.225 31.1111 29.45V24.8ZM15.5556 13.175C15.5556 12.4 16.3333 11.625 17.1111 11.625H21.7778C22.5556 11.625 23.3333 12.4 23.3333 13.175V17.825C23.3333 18.6 22.5556 19.375 21.7778 19.375H17.1111C16.3333 19.375 15.5556 18.6 15.5556 17.825V13.175ZM21.7778 31H17.1111C16.3333 31 15.5556 30.225 15.5556 29.45V24.8C15.5556 24.025 16.3333 23.25 17.1111 23.25H21.7778C22.5556 23.25 23.3333 24.025 23.3333 24.8V29.45C23.3333 30.225 22.5556 31 21.7778 31ZM23.3333 46.5C23.3333 40.0796 28.5566 34.875 35 34.875C41.4434 34.875 46.6667 40.0796 46.6667 46.5H23.3333ZM54.4444 29.45C54.4444 30.225 53.6667 31 52.8889 31H48.2222C47.4444 31 46.6667 30.225 46.6667 29.45V24.8C46.6667 24.025 47.4444 23.25 48.2222 23.25H52.8889C53.6667 23.25 54.4444 24.025 54.4444 24.8V29.45ZM54.4444 17.825C54.4444 18.6 53.6667 19.375 52.8889 19.375H48.2222C47.4444 19.375 46.6667 18.6 46.6667 17.825V13.175C46.6667 12.4 47.4444 11.625 48.2222 11.625H52.8889C53.6667 11.625 54.4444 12.4 54.4444 13.175V17.825Z" fill="#5FBE00"/>
</svg>
