<svg width="68" height="68" viewBox="0 0 68 68" fill="none" xmlns="http://www.w3.org/2000/svg">
<g clip-path="url(#clip0)">
<path d="M8.50001 13.0626L8.50001 17.2886C8.50001 18.1338 8.50001 34.615 20.4 40.1087C29.75 44.3347 29.75 54.8995 29.75 55.3221L29.75 68L38.25 68L38.25 55.3221C38.25 54.8995 38.25 44.3347 47.6 40.1087C59.5 34.615 59.5 18.1338 59.5 17.2886L59.5 13.0626L68 13.0626L55.25 0.384772L42.5 13.0626L51 13.0626L51 17.2886C51 17.2886 51 29.1212 43.775 32.502C39.1 34.615 36.125 37.9957 34 40.9539C31.875 37.5731 28.9 34.615 24.225 32.502C17 29.1212 17 17.2886 17 17.2886L17 13.0626L25.5 13.0626L12.75 0.384768L1.24595e-05 13.0626L8.50001 13.0626Z" fill="#5FBE00"/>
</g>
<defs>
<clipPath id="clip0">
<rect width="68" height="67.6152" fill="white" transform="translate(68 68) rotate(-180)"/>
</clipPath>
</defs>
</svg>
