<svg width="54" height="54" viewBox="0 0 54 54" fill="none" xmlns="http://www.w3.org/2000/svg">
<path d="M43.425 38.025C44.325 36.45 45 34.65 45 32.625C45 27 40.5 22.5 34.875 22.5C29.25 22.5 24.75 27 24.75 32.625C24.75 38.25 29.25 42.75 34.875 42.75C36.9 42.75 38.7 42.075 40.275 41.175L47.475 48.375L50.625 45.225L43.425 38.025ZM34.875 38.25C31.725 38.25 29.25 35.775 29.25 32.625C29.25 29.475 31.725 27 34.875 27C38.025 27 40.5 29.475 40.5 32.625C40.5 35.775 38.025 38.25 34.875 38.25ZM27 45V49.5C14.58 49.5 4.5 39.42 4.5 27C4.5 14.58 14.58 4.5 27 4.5C37.89 4.5 46.9575 12.24 49.05 22.5H44.3925C43.6907 19.7816 42.3628 17.2651 40.5149 15.1515C38.667 13.038 36.3503 11.3859 33.75 10.3275V11.25C33.75 13.725 31.725 15.75 29.25 15.75H24.75V20.25C24.75 21.4875 23.7375 22.5 22.5 22.5H18V27H22.5V33.75H20.25L9.4725 22.9725C9.18 24.2775 9 25.605 9 27C9 36.9225 17.0775 45 27 45Z" fill="#5FBE00"/>
</svg>
